<svg xmlns="http://www.w3.org/2000/svg" width="251" height="44" fill="none"><path d="M215.064 34.754V10.097h6.517v4.35h.289c.514-1.445 1.37-2.585 2.569-3.419s2.632-1.252 4.302-1.252c1.691 0 3.13.423 4.318 1.268a5.97 5.97 0 0 1 2.376 3.403h.256c.503-1.413 1.413-2.542 2.729-3.387 1.327-.856 2.895-1.284 4.704-1.284 2.301 0 4.168.733 5.602 2.199 1.445 1.455 2.167 3.521 2.167 6.196v16.582h-6.822V19.52c0-1.37-.364-2.397-1.092-3.082s-1.637-1.027-2.729-1.027c-1.241 0-2.21.396-2.905 1.188-.696.781-1.044 1.814-1.044 3.098v15.057h-6.629V19.375c0-1.209-.348-2.172-1.044-2.889-.685-.717-1.589-1.076-2.713-1.076-.759 0-1.444.193-2.054.578-.6.375-1.076.904-1.429 1.589-.353.674-.53 1.466-.53 2.376v14.8h-6.838zm-16.582.481c-2.494 0-4.65-.53-6.469-1.589-1.809-1.07-3.206-2.558-4.19-4.463-.985-1.916-1.477-4.136-1.477-6.662 0-2.547.492-4.773 1.477-6.678.984-1.916 2.381-3.403 4.19-4.463 1.819-1.07 3.975-1.605 6.469-1.605s4.644.535 6.453 1.605c1.819 1.06 3.221 2.547 4.206 4.463.984 1.905 1.476 4.131 1.476 6.678 0 2.526-.492 4.746-1.476 6.662-.985 1.905-2.387 3.392-4.206 4.463-1.809 1.06-3.96 1.589-6.453 1.589zm.032-5.297c1.134 0 2.081-.321 2.841-.963.76-.653 1.332-1.541 1.718-2.665.396-1.124.594-2.402.594-3.837s-.198-2.713-.594-3.837c-.386-1.124-.958-2.012-1.718-2.665s-1.707-.979-2.841-.979c-1.145 0-2.108.326-2.89.979-.77.653-1.353 1.541-1.749 2.665-.386 1.124-.578 2.403-.578 3.837s.192 2.713.578 3.837c.396 1.124.979 2.012 1.749 2.665.782.642 1.745.963 2.89.963zm-26.563 5.297c-2.526 0-4.698-.535-6.517-1.605-1.809-1.081-3.2-2.579-4.174-4.495-.963-1.916-1.445-4.12-1.445-6.614 0-2.526.487-4.741 1.461-6.646a10.85 10.85 0 0 1 4.19-4.479c1.808-1.081 3.959-1.621 6.453-1.621 2.151 0 4.034.391 5.65 1.172s2.895 1.878 3.837 3.291 1.461 3.071 1.557 4.976h-6.453c-.182-1.231-.664-2.221-1.445-2.97-.77-.76-1.782-1.14-3.034-1.14-1.059 0-1.985.289-2.777.867-.781.567-1.391 1.396-1.83 2.488s-.658 2.413-.658 3.965c0 1.573.214 2.911.642 4.013.439 1.102 1.054 1.942 1.846 2.52s1.718.867 2.777.867c.781 0 1.482-.161 2.103-.482.631-.321 1.15-.787 1.557-1.396.418-.621.69-1.365.819-2.231h6.453c-.107 1.883-.621 3.542-1.541 4.976-.91 1.423-2.167 2.536-3.772 3.339s-3.505 1.204-5.699 1.204z" fill="#fff"/><path d="M151.343 35.171a3.75 3.75 0 0 1-2.729-1.124c-.749-.76-1.123-1.669-1.123-2.729 0-1.049.374-1.948 1.123-2.697a3.75 3.75 0 0 1 2.729-1.124c1.028 0 1.927.375 2.697 1.124s1.156 1.648 1.156 2.697a3.62 3.62 0 0 1-.546 1.942c-.353.578-.819 1.043-1.396 1.397a3.68 3.68 0 0 1-1.911.514z" fill="#e84f35"/><path d="M128.156 35.219c-1.574 0-2.976-.273-4.206-.819-1.231-.556-2.205-1.375-2.922-2.456-.706-1.091-1.059-2.451-1.059-4.077 0-1.37.251-2.52.754-3.451s1.188-1.68 2.055-2.247 1.851-.995 2.954-1.284c1.113-.289 2.279-.492 3.499-.61l3.467-.417c.878-.139 1.515-.342 1.911-.61s.594-.663.594-1.188v-.096c0-1.017-.321-1.803-.964-2.36-.631-.556-1.53-.835-2.696-.835-1.231 0-2.21.273-2.938.819-.728.535-1.209 1.209-1.445 2.023l-6.324-.514c.321-1.498.952-2.793 1.894-3.885.942-1.102 2.156-1.948 3.644-2.536 1.498-.599 3.232-.899 5.201-.899 1.37 0 2.681.161 3.933.482 1.262.321 2.381.819 3.355 1.493.984.674 1.76 1.541 2.327 2.6.567 1.049.851 2.306.851 3.772v16.63h-6.485v-3.419h-.193c-.396.771-.926 1.45-1.589 2.039-.664.578-1.461 1.033-2.392 1.364-.931.321-2.006.482-3.226.482zm1.958-4.719c1.006 0 1.894-.198 2.665-.594.77-.407 1.375-.953 1.814-1.637s.658-1.461.658-2.328v-2.617c-.214.139-.509.268-.883.385l-1.236.305-1.381.241-1.252.176c-.802.118-1.503.305-2.103.562s-1.064.605-1.396 1.043c-.332.428-.498.963-.498 1.605 0 .931.337 1.643 1.011 2.135.685.482 1.552.722 2.601.722zm-21.298-6.245V10.097h6.839v24.657h-6.566v-4.479h-.257a7.27 7.27 0 0 1-2.777 3.483c-1.284.878-2.852 1.316-4.703 1.316-1.648 0-3.098-.375-4.351-1.124s-2.231-1.814-2.938-3.194c-.696-1.38-1.049-3.034-1.059-4.96V10.097h6.838v14.479c.011 1.455.401 2.606 1.172 3.451s1.803 1.268 3.098 1.268a4.91 4.91 0 0 0 2.311-.562c.717-.385 1.295-.952 1.734-1.702.45-.749.669-1.675.658-2.777zM70.74 44a13.55 13.55 0 0 1-2.44-.209c-.749-.128-1.37-.294-1.862-.498l1.541-5.105c.803.246 1.525.38 2.167.401.653.021 1.215-.128 1.686-.45.482-.321.872-.867 1.172-1.637l.401-1.044-8.845-25.363h7.192l5.105 18.107h.257l5.153-18.107h7.24l-9.583 27.322c-.46 1.327-1.086 2.483-1.878 3.467-.781.995-1.771 1.76-2.97 2.295-1.198.546-2.643.819-4.334.819zm-22.53-8.781c-1.573 0-2.975-.273-4.206-.819-1.231-.556-2.204-1.375-2.921-2.456-.706-1.091-1.059-2.451-1.059-4.077 0-1.37.252-2.52.755-3.451a6.11 6.11 0 0 1 2.055-2.247c.867-.567 1.851-.995 2.954-1.284a22.53 22.53 0 0 1 3.499-.61l3.467-.417c.878-.139 1.514-.342 1.91-.61s.594-.663.594-1.188v-.096c0-1.017-.321-1.803-.963-2.36-.631-.556-1.53-.835-2.697-.835-1.231 0-2.21.273-2.938.819-.728.535-1.209 1.209-1.445 2.023l-6.325-.514c.321-1.498.953-2.793 1.894-3.885.942-1.102 2.156-1.948 3.644-2.536 1.498-.599 3.232-.899 5.201-.899 1.37 0 2.681.161 3.933.482 1.263.321 2.381.819 3.355 1.493a7.26 7.26 0 0 1 2.328 2.6c.567 1.049.851 2.306.851 3.772v16.63H55.61v-3.419h-.193a6.96 6.96 0 0 1-1.589 2.039c-.663.578-1.461 1.033-2.392 1.364-.931.321-2.007.482-3.227.482zm1.958-4.719c1.006 0 1.894-.198 2.665-.594a4.72 4.72 0 0 0 1.814-1.637 4.22 4.22 0 0 0 .658-2.328v-2.617c-.214.139-.508.268-.883.385l-1.236.305-1.381.241-1.252.176c-.803.118-1.504.305-2.103.562s-1.065.605-1.397 1.043c-.332.428-.498.963-.498 1.605 0 .931.337 1.643 1.011 2.135.685.482 1.552.722 2.6.722zm-37.466 4.254V1.878h12.971c2.494 0 4.618.476 6.373 1.429 1.755.942 3.093 2.253 4.013 3.933.931 1.669 1.397 3.596 1.397 5.779s-.471 4.109-1.413 5.779-2.306 2.97-4.093 3.901c-1.776.931-3.927 1.397-6.453 1.397H17.23v-5.57h7.143c1.338 0 2.44-.23 3.307-.69.878-.471 1.53-1.118 1.958-1.942.439-.835.658-1.792.658-2.873 0-1.092-.219-2.044-.658-2.857-.428-.824-1.081-1.461-1.958-1.91-.878-.46-1.991-.69-3.339-.69h-4.687v27.193h-6.951z" fill="#fff"/><path d="M.257 34.754V10.097h6.838v24.657H.257zM3.692 6.919c-1.017 0-1.889-.337-2.617-1.011C.359 5.222 0 4.404 0 3.451c0-.942.359-1.75 1.076-2.424C1.803.342 2.675 0 3.692 0s1.883.342 2.601 1.027c.728.674 1.092 1.482 1.092 2.424 0 .952-.364 1.771-1.092 2.456-.717.674-1.584 1.011-2.601 1.011z" fill="#e84f35"/></svg>