<svg xmlns="http://www.w3.org/2000/svg" width="143" height="26" fill="none"><path d="M122.196 19.997V5.987h3.703v2.472h.164c.292-.821.778-1.468 1.459-1.943s1.496-.711 2.444-.711c.961 0 1.779.24 2.454.721a3.39 3.39 0 0 1 1.35 1.934h.146c.285-.803.802-1.444 1.55-1.924.754-.486 1.645-.73 2.673-.73 1.307 0 2.368.417 3.183 1.25.821.827 1.231 2 1.231 3.521v9.422h-3.876v-8.656c0-.778-.207-1.362-.62-1.751s-.931-.584-1.551-.584c-.705 0-1.256.225-1.651.675-.395.444-.593 1.031-.593 1.76v8.555h-3.767V11.26c0-.687-.197-1.234-.592-1.642-.39-.407-.903-.611-1.542-.611-.432 0-.821.109-1.167.328-.341.213-.611.514-.812.903-.201.383-.301.833-.301 1.35v8.409h-3.885zm-9.422.273c-1.417 0-2.642-.301-3.676-.903a6.18 6.18 0 0 1-2.38-2.536c-.56-1.088-.839-2.35-.839-3.785 0-1.447.279-2.712.839-3.794.559-1.088 1.353-1.934 2.38-2.536 1.034-.608 2.259-.912 3.676-.912s2.639.304 3.666.912c1.034.602 1.831 1.447 2.39 2.536.559 1.082.839 2.347.839 3.794 0 1.435-.28 2.697-.839 3.785-.559 1.082-1.356 1.927-2.39 2.536-1.027.602-2.249.903-3.666.903zm.018-3.01c.645 0 1.183-.182 1.615-.547.431-.371.757-.876.975-1.514.225-.638.338-1.365.338-2.18s-.113-1.541-.338-2.18c-.218-.638-.544-1.143-.975-1.514s-.97-.556-1.615-.556c-.65 0-1.198.185-1.642.556-.437.371-.769.876-.994 1.514-.219.638-.328 1.365-.328 2.18s.109 1.541.328 2.18c.225.638.557 1.143.994 1.514.444.365.992.547 1.642.547zm-15.093 3.01c-1.435 0-2.669-.304-3.703-.912-1.028-.614-1.818-1.465-2.371-2.554-.547-1.088-.821-2.341-.821-3.758 0-1.435.277-2.694.83-3.776.559-1.088 1.353-1.937 2.38-2.545 1.028-.614 2.25-.921 3.666-.921 1.222 0 2.292.222 3.211.666s1.644 1.067 2.18 1.87.83 1.745.884 2.827h-3.666c-.104-.699-.377-1.262-.821-1.687-.438-.432-1.012-.648-1.724-.648-.602 0-1.128.164-1.578.493-.444.322-.791.793-1.04 1.414s-.374 1.371-.374 2.253c0 .894.122 1.654.365 2.28.249.626.599 1.104 1.049 1.432s.976.492 1.578.492c.444 0 .842-.091 1.195-.274.359-.182.654-.447.885-.793.237-.353.392-.775.466-1.268h3.666c-.061 1.07-.352 2.013-.875 2.828-.517.809-1.232 1.441-2.144 1.897s-1.991.684-3.238.684z" fill="#7c9cac"/><path d="M85.991 20.234a2.13 2.13 0 0 1-1.55-.638 2.13 2.13 0 0 1-.639-1.551 2.09 2.09 0 0 1 .639-1.532 2.13 2.13 0 0 1 1.55-.638c.584 0 1.094.213 1.532.638a2.06 2.06 0 0 1 .657 1.532 2.06 2.06 0 0 1-.31 1.104 2.36 2.36 0 0 1-.794.794 2.09 2.09 0 0 1-1.085.292z" fill="#e84f35"/><path d="M72.816 20.261c-.894 0-1.69-.155-2.39-.465-.699-.316-1.253-.781-1.66-1.395-.401-.62-.602-1.393-.602-2.317 0-.778.143-1.432.429-1.961a3.47 3.47 0 0 1 1.168-1.277c.492-.322 1.052-.566 1.678-.73a12.79 12.79 0 0 1 1.988-.347l1.97-.237c.499-.079.86-.195 1.085-.347a.76.76 0 0 0 .337-.675v-.055c0-.578-.182-1.025-.547-1.341-.359-.316-.869-.474-1.532-.474-.699 0-1.256.155-1.669.465a2.14 2.14 0 0 0-.821 1.149l-3.594-.292c.183-.851.541-1.587 1.076-2.207.535-.626 1.225-1.107 2.07-1.441.851-.341 1.836-.511 2.955-.511.778 0 1.523.091 2.235.274a5.83 5.83 0 0 1 1.906.848c.559.383 1 .876 1.323 1.478.322.596.483 1.31.483 2.143v9.449H77.02v-1.943h-.109a3.95 3.95 0 0 1-.903 1.158c-.377.328-.83.587-1.359.775-.529.182-1.14.274-1.833.274zm1.113-2.681c.572 0 1.076-.113 1.514-.337a2.68 2.68 0 0 0 1.031-.93 2.4 2.4 0 0 0 .374-1.323v-1.487a2.08 2.08 0 0 1-.502.219l-.702.173-.784.137-.712.1a4.8 4.8 0 0 0-1.195.319 1.91 1.91 0 0 0-.793.593c-.189.243-.283.547-.283.912 0 .529.192.933.575 1.213.389.274.882.41 1.478.41zm-12.102-3.549V5.987h3.886v14.009h-3.73v-2.545h-.146a4.13 4.13 0 0 1-1.578 1.979c-.73.499-1.62.748-2.672.748-.936 0-1.76-.213-2.472-.638s-1.268-1.031-1.669-1.815c-.395-.784-.596-1.724-.602-2.818v-8.92h3.886v8.227c.006.827.228 1.481.666 1.961s1.025.721 1.76.721a2.8 2.8 0 0 0 1.313-.319c.407-.219.736-.541.985-.967.255-.426.38-.952.374-1.578zM40.193 25.25c-.492 0-.955-.04-1.386-.119-.426-.073-.778-.167-1.058-.283l.876-2.9a4.8 4.8 0 0 0 1.231.228c.371.012.69-.073.958-.255.274-.182.496-.492.666-.93l.228-.593-5.025-14.411h4.086l2.9 10.288h.146l2.928-10.288h4.114L45.41 21.51c-.262.754-.617 1.411-1.067 1.97-.444.565-1.006 1-1.687 1.304-.681.31-1.502.465-2.463.465zm-12.801-4.989c-.894 0-1.69-.155-2.39-.465a3.85 3.85 0 0 1-1.66-1.395c-.401-.62-.602-1.393-.602-2.317 0-.778.143-1.432.429-1.961a3.47 3.47 0 0 1 1.167-1.277c.493-.322 1.052-.566 1.678-.73a12.79 12.79 0 0 1 1.988-.347l1.97-.237c.499-.079.86-.195 1.085-.347a.76.76 0 0 0 .338-.675v-.055c0-.578-.182-1.025-.547-1.341-.359-.316-.87-.474-1.532-.474-.699 0-1.256.155-1.669.465a2.14 2.14 0 0 0-.821 1.149l-3.594-.292c.182-.851.541-1.587 1.076-2.207.535-.626 1.225-1.107 2.07-1.441.851-.341 1.836-.511 2.955-.511.778 0 1.523.091 2.235.274a5.83 5.83 0 0 1 1.906.848 4.12 4.12 0 0 1 1.323 1.478c.322.596.483 1.31.483 2.143v9.449h-3.685v-1.943h-.109c-.225.438-.526.824-.903 1.158-.377.328-.83.587-1.359.775-.529.182-1.14.274-1.833.274zm1.113-2.681c.572 0 1.076-.113 1.514-.337a2.68 2.68 0 0 0 1.031-.93 2.4 2.4 0 0 0 .374-1.323v-1.487a2.08 2.08 0 0 1-.502.219l-.702.173-.784.137-.711.1a4.8 4.8 0 0 0-1.195.319 1.91 1.91 0 0 0-.794.593c-.188.243-.283.547-.283.912 0 .529.192.933.575 1.213.389.274.882.41 1.477.41zM7.217 19.997V1.317h7.37c1.417 0 2.624.271 3.621.812.997.535 1.757 1.28 2.28 2.235.529.949.793 2.043.793 3.283s-.268 2.335-.803 3.283-1.31 1.687-2.326 2.216c-1.009.529-2.232.793-3.667.793H9.789v-3.165h4.059c.76 0 1.386-.131 1.879-.392a2.6 2.6 0 0 0 1.113-1.104c.249-.474.374-1.018.374-1.633 0-.62-.125-1.161-.374-1.623-.243-.468-.614-.83-1.113-1.085-.499-.261-1.131-.392-1.897-.392h-2.663v15.451h-3.95z" fill="#7c9cac"/><path d="M.146 19.997V5.987h3.885v14.01H.146zM2.098 4.181a2.11 2.11 0 0 1-1.487-.575C.204 3.217 0 2.752 0 2.211c0-.535.204-.994.611-1.377A2.09 2.09 0 0 1 2.098.25a2.06 2.06 0 0 1 1.478.584c.413.383.62.842.62 1.377 0 .541-.207 1.006-.62 1.395-.407.383-.9.575-1.478.575z" fill="#e84f35"/></svg>