<svg xmlns="http://www.w3.org/2000/svg" width="151" height="45" fill="none" xmlns:v="https://vecta.io/nano"><path d="M.195 10.371h7.409v23.816H.195V10.371zm7.652-6.619c0 2.046-1.562 3.7-3.998 3.7-2.339 0-3.897-1.654-3.848-3.7C-.047 1.61 1.51 0 3.902 0c2.383 0 3.897 1.61 3.945 3.753zm80.906 26.476c0-2.641 1.809-4.551 4.408-4.551s4.36 1.861 4.36 4.551c0 2.593-1.765 4.498-4.409 4.498-2.546 0-4.36-1.905-4.36-4.498z" fill="#e84f35"/><path d="M20.848 16.624c.636.15 1.421.198 2.498.198 3.967 0 6.416-2.006 6.416-5.38 0-3.034-2.105-4.842-5.825-4.842-1.518 0-2.546.146-3.085.291v9.732h-.005zm-7.392-14.97C15.755 1.261 18.99.97 23.54.97c4.603 0 7.881.882 10.088 2.641 2.105 1.662 3.526 4.401 3.526 7.633s-1.077 5.966-3.036 7.827c-2.546 2.399-6.315 3.475-10.723 3.475-.98 0-1.862-.048-2.546-.145v11.791h-7.392V1.654zM53.503 22.89c-3.914-.049-6.95.882-6.95 3.766 0 1.909 1.271 2.835 2.939 2.835 1.858 0 3.376-1.221 3.866-2.738a5.39 5.39 0 0 0 .146-1.27V22.89zm.882 11.297l-.441-2.394h-.146c-1.566 1.909-4.016 2.932-6.853 2.932-4.85 0-7.736-3.519-7.736-7.338 0-6.213 5.582-9.194 14.051-9.146v-.344c0-1.274-.684-3.082-4.355-3.082-2.449 0-5.044.829-6.611 1.812l-1.372-4.793c1.664-.93 4.947-2.103 9.302-2.103 7.979 0 10.525 4.696 10.525 10.323v8.317c0 2.297.097 4.502.344 5.821h-6.708v-.004zm17.233-23.921l3.574 11.743 1.174 4.449h.146l1.077-4.449 2.939-11.743h7.983l-5.582 15.751c-3.429 9.49-5.728 13.308-8.424 15.703-2.595 2.253-5.335 3.034-7.198 3.281l-1.567-6.31c.931-.145 2.105-.591 3.23-1.274 1.125-.587 2.352-1.76 3.085-2.985.247-.344.393-.732.393-1.076 0-.242-.049-.639-.344-1.221L63.34 10.268h8.279zm52.977 16.245l.194 7.682h-6.465l-.344-3.373h-.146c-.931 1.468-3.182 3.911-7.493 3.911-4.845 0-8.42-3.034-8.42-10.42V10.266h7.489v12.867c0 3.475 1.125 5.574 3.72 5.574 2.056 0 3.23-1.415 3.72-2.593.194-.441.243-1.027.243-1.614V10.266h7.488v16.245h.014zm18.702-3.621c-3.919-.049-6.955.882-6.955 3.766 0 1.909 1.275 2.835 2.939 2.835 1.862 0 3.38-1.221 3.866-2.738a5.39 5.39 0 0 0 .15-1.27V22.89zm.882 11.297l-.441-2.394h-.146c-1.566 1.909-4.015 2.932-6.853 2.932-4.85 0-7.736-3.519-7.736-7.338 0-6.213 5.583-9.194 14.051-9.146v-.344c0-1.274-.688-3.082-4.36-3.082-2.445 0-5.044.829-6.611 1.812l-1.368-4.793c1.664-.93 4.943-2.103 9.298-2.103 7.983 0 10.525 4.696 10.525 10.323v8.317c0 2.297.097 4.502.344 5.821h-6.703v-.004z" fill="#7c9cac"/></svg>