<svg xmlns="http://www.w3.org/2000/svg" width="40" height="39" fill="none" xmlns:v="https://vecta.io/nano"><path d="M17.103 37.926c-2.259-.831-4.668-1.405-6.755-2.543C3.153 31.448-.575 23.317 1.053 15.635 2.801 7.383 9.37 1.342 17.719.405 19.26.233 20.838.38 22.725.38l-3.392 5.021c-.149.211-.608.247-.933.296-6.841 1.035-11.442 5.734-12.17 12.439-.778 7.194 5.47 14.089 12.875 14.47 7.987.412 14.857-5.729 14.676-13.747-.037-1.622-.687-3.222-.975-4.849-.092-.517-.108-1.176.144-1.601.82-1.39 1.782-2.7 2.771-4.162a17.88 17.88 0 0 1 3.363 8.046C40.73 26.661 33.291 36.109 23.315 37.7c-.16.026-.304.147-.454.224l-5.759.003z" fill="#114c8d"/><path d="M11.679 19.23c-.244-4.378 3.554-8.218 8.092-8.373 4.708-.162 8.784 3.735 8.715 8.329-.066 4.504-3.903 8.267-8.388 8.136v-4.594c.443-.139.946-.247 1.405-.45 1.502-.669 2.343-2.273 2.01-3.768-.357-1.609-1.659-2.746-3.253-2.841-1.664-.098-3.279.927-3.615 2.527-.186.888-.545 1.094-1.376 1.053-1.167-.062-2.338-.018-3.591-.018z" fill="#ffcc0b"/></svg>