<svg xmlns="http://www.w3.org/2000/svg" width="67" height="23" fill="#282d60" xmlns:v="https://vecta.io/nano"><path d="M.682 2.008c.042-.125.092-.426.15-.609h.51l7.454-.034c1.471 0 2.381.726 2.657 2.178l2.156 11.426c.025.142.067.292.134.551l.702-1.753 4.746-12.01c.117-.284.234-.401.56-.401l4.721.008h.526l-.259.651-8.297 19.839a.51.51 0 0 1-.552.376 242.55 242.55 0 0 0-4.93 0c-.318 0-.426-.108-.501-.401L6.582 6.782l-.443-1.653c-.167-.651-.568-1.102-1.161-1.402-1.68-.843-2.449-1.335-4.296-1.719 0 .058 0-.058 0 0zm46.467 20.156l3.551-8.471 4.454-10.641c.468-1.127 1.295-1.686 2.523-1.669h4.053c.259 0 .376.042.443.342l2.816 13.496 1.379 6.56c.025.117.025.242.042.392l-.485.025c-1.337 0-2.674-.008-4.011.008-.326 0-.46-.1-.518-.426l-.485-2.404a.31.31 0 0 0-.359-.3h-6.35c-.242 0-.343.1-.418.309l-.911 2.504c-.05.133-.226.309-.343.309h-5.264c-.025.008-.05-.008-.117-.033zm8.297-7.345h4.504l-1.604-7.704h-.109l-2.791 7.704zm-23.454 6.619l.978-4.549.602.276c1.746.818 3.585 1.177 5.515 1.002.685-.058 1.345-.242 1.913-.659.953-.693 1.053-1.845.15-2.587-.593-.492-1.278-.885-1.964-1.243-1.161-.609-2.306-1.227-3.284-2.12-2.632-2.404-1.805-5.976-.017-7.837 1.421-1.486 3.209-2.212 5.181-2.546 2.407-.409 4.763-.142 7.069.651.067.025.125.058.226.109l-.911 4.273-2.908-.751c-1.069-.2-2.164-.259-3.217.117a3.29 3.29 0 0 0-1.12.684c-.543.517-.56 1.285 0 1.778.518.467 1.128.843 1.73 1.21l2.782 1.602c4.094 2.587 2.874 7.503.409 9.506-1.454 1.177-3.133 1.794-4.947 2.037a16.62 16.62 0 0 1-7.771-.785c-.134-.042-.251-.1-.418-.167zm-3.719.768h-5.389l4.454-20.799h5.373l-4.437 20.799z"/></svg>