<svg xmlns="http://www.w3.org/2000/svg" width="49" height="31" fill="none" xmlns:v="https://vecta.io/nano"><g clip-path="url(#A)"><path d="M15.099 30.137c8.324 0 15.072-6.582 15.072-14.7S23.422.736 15.099.736.027 7.318.027 15.437s6.748 14.7 15.072 14.7z" fill="#eb001b"/><path d="M33.304 30.137c8.324 0 15.072-6.582 15.072-14.7S41.627.736 33.304.736s-15.071 6.582-15.071 14.7 6.748 14.7 15.072 14.7z" fill="#f79e1b"/><path d="M24.198 3.697c3.629 2.682 5.965 6.932 5.965 11.71s-2.337 9.036-5.965 11.718c-3.629-2.682-5.966-6.932-5.966-11.718s2.344-9.028 5.966-11.71z" fill="#ff5f00"/></g><defs><clipPath id="A"><path fill="#fff" transform="translate(.027 .736)" d="M0 0h48.348v29.401H0z"/></clipPath></defs></svg>