<svg xmlns="http://www.w3.org/2000/svg" width="211" height="83" fill="none" xmlns:v="https://vecta.io/nano"><path d="M143.871 46.714l2.1.645c-.14.609-.35 1.111-.665 1.505s-.665.716-1.12.895c-.455.215-1.015.322-1.715.322-.839 0-1.504-.107-2.064-.358-.525-.251-.98-.681-1.365-1.325-.385-.609-.595-1.433-.595-2.4 0-1.29.35-2.293 1.015-3.009s1.645-1.039 2.869-1.039c.98 0 1.715.215 2.275.609s.98 1.003 1.225 1.863l-2.1.466c-.07-.251-.14-.43-.245-.537-.14-.179-.28-.322-.49-.43a1.34 1.34 0 0 0-.63-.143 1.34 1.34 0 0 0-1.224.681c-.21.322-.315.86-.315 1.54 0 .86.14 1.469.385 1.791s.63.502 1.085.502.804-.143 1.014-.394c.28-.322.455-.681.56-1.182zm2.94-.717c0-1.29.35-2.293 1.05-3.009s1.679-1.075 2.939-1.075c1.295 0 2.275.358 2.975 1.039.7.717 1.05 1.684 1.05 2.973 0 .931-.14 1.684-.455 2.257s-.735 1.039-1.33 1.361c-.56.322-1.295.502-2.135.502-.875 0-1.574-.143-2.169-.43-.56-.286-1.015-.716-1.4-1.361s-.525-1.326-.525-2.257zm2.38 0c0 .788.14 1.361.419 1.719s.665.537 1.19.537.91-.179 1.19-.502c.28-.358.42-.967.42-1.827 0-.752-.14-1.29-.455-1.612-.28-.358-.7-.502-1.19-.502s-.875.179-1.155.537c-.279.287-.419.86-.419 1.648zm6.858-3.941h3.115l1.189 4.8 1.19-4.8h3.115v7.881h-1.96v-6.018l-1.505 6.018h-1.75l-1.504-6.018v6.018h-1.96v-7.881h.07zm10.149 0h3.954c.875 0 1.505.215 1.925.645s.63 1.003.63 1.791-.245 1.433-.7 1.863c-.455.466-1.19.681-2.135.681h-1.295v2.938h-2.379v-7.917zm2.379 3.367h.595c.455 0 .77-.072.98-.251.175-.179.28-.358.28-.609s-.07-.466-.245-.645-.455-.251-.91-.251h-.665v1.755h-.035zm5.389-3.367h2.38v5.947h3.709v1.935h-6.089v-7.881zm7.279 0h2.38v7.881h-2.38v-7.881zm8.818 6.556h-2.694l-.385 1.29h-2.415l2.905-7.881h2.589l2.905 7.881h-2.485l-.42-1.29zm-.49-1.684l-.839-2.83-.84 2.83h1.679zm4.13-4.872h2.204l2.905 4.37v-4.37h2.239v7.881h-2.239l-2.87-4.335v4.335h-2.239v-7.881zm8.398 0h7.244v1.934h-2.415v5.947h-2.379V43.99h-2.415v-1.934h-.035zm-86.855 12.001l6.894-2.221-2.24-5.087c-1.645 2.114-3.289 4.836-4.654 7.308zm-2.345-23.249L99.393 0 .5 5.732 27.9 82.25l52.736-17.016c-3.359-4.944-4.584-10.819-.7-13.684 4.339-3.224 10.883.502 15.047 5.768 4.024-6.878 15.328-22.891 17.917-26.509z" fill="#225e63"/><path d="M96.313 22.264c4.129 0 7.489-3.224 7.489-7.236s-3.36-7.236-7.489-7.236-7.489 3.224-7.489 7.236c0 3.976 3.359 7.236 7.489 7.236zm-6.124 3.117h12.248v32.778H90.189V25.381zm-6.054 9.564c.105.036.175 0 .175-.108v-8.311c0-.107-.07-.215-.175-.287 0 0-1.61-1.075-6.509-1.361-.245-.143-4.549-.179-5.704 0C54.075 26.348 53.41 39.567 53.41 40.14v3.224c0 .394 0 13.899 18.512 15.082 1.82.143 5.354 0 5.704 0 4.269 0 7.209-1.326 7.209-1.326a.27.27 0 0 0 .175-.251v-7.774c0-.107-.07-.143-.14-.072 0 0-1.33 1.075-7.139 1.684-1.645.179-2.45.107-3.044 0-8.259-1.433-8.644-7.595-8.644-7.595 0-.108-.035-.287-.035-.358V40.39c0-.108 0-.287.035-.358 0 0 .56-6.627 8.644-7.344h3.044c3.534.466 6.404 2.257 6.404 2.257zm-64.74 23.106c0 .108.07.179.175.179h11.933c.105 0 .175-.072.175-.179v-9.529c0-.107.07-.179.175-.179 0 0 19.072 1.397 19.072-11.678 0-10.353-11.968-11.463-15.887-11.284H19.57c-.105 0-.175.072-.175.179v32.492zm12.073-16.98v-8.562h2.939s4.234.179 4.584 3.153c.07.215.07 1.684 0 1.755-.56 3.475-4.234 3.654-4.234 3.654h-3.29z" fill="#fefefe"/><path d="M96.664 73.975c.98 0 1.75 0 3.009-.573 4.339-2.329 19.001-38.976 34.469-50.26a1.08 1.08 0 0 0 .28-.287c.105-.143.105-.287.105-.287s0-.752-2.275-.752c-13.753-.394-28.065 29.16-35.589 40.838-.105.143-.595 0-.595 0s-5.039-6.09-9.413-8.418c-.105-.036-.595-.215-1.12-.179-.35 0-2.38.43-3.325 1.433-1.12 1.218-1.085 1.899-1.085 3.367 0 .108.07.609.21.86 1.085 1.934 5.949 8.813 9.973 12.61.595.466 1.54 1.648 5.354 1.648z" fill="#2bbc5d"/><path d="M138.202 12.072h11.443c2.275 0 4.095.322 5.459.931 1.4.645 2.555 1.54 3.43 2.687.91 1.182 1.575 2.544 1.959 4.084.42 1.54.63 3.188.63 4.944 0 2.723-.315 4.836-.91 6.341s-1.434 2.758-2.519 3.797c-1.085 1.003-2.24 1.684-3.465 2.042-1.679.466-3.219.681-4.584.681h-11.443V12.072zm7.699 5.768v13.935h1.89c1.609 0 2.764-.179 3.429-.537s1.225-1.003 1.61-1.899.595-2.4.595-4.442c0-2.723-.42-4.55-1.295-5.553s-2.275-1.505-4.304-1.505h-1.925zm17.357 11.32l7.349-.466c.175 1.218.49 2.149.98 2.794.805 1.039 1.924 1.54 3.394 1.54 1.085 0 1.96-.251 2.555-.788s.91-1.146.91-1.827c0-.645-.28-1.254-.84-1.791s-1.89-1.003-3.955-1.469c-3.394-.788-5.774-1.827-7.243-3.117s-2.17-2.937-2.17-4.944c0-1.325.385-2.543 1.12-3.726s1.854-2.078 3.359-2.758 3.535-1.003 6.124-1.003c3.185 0 5.634.609 7.279 1.827 1.68 1.218 2.66 3.152 2.975 5.803l-7.279.43c-.21-1.146-.595-1.97-1.225-2.508s-1.47-.788-2.555-.788c-.909 0-1.574.179-2.029.573s-.665.86-.665 1.433c0 .394.175.788.56 1.11.35.322 1.225.645 2.589.931 3.36.752 5.774 1.505 7.244 2.257s2.52 1.72 3.185 2.83.979 2.4.979 3.797a8.2 8.2 0 0 1-1.329 4.514c-.875 1.397-2.135 2.436-3.71 3.152s-3.604 1.075-6.019 1.075c-4.234 0-7.174-.824-8.818-2.508-1.61-1.684-2.52-3.797-2.765-6.377zm24.601 0l7.349-.466c.175 1.218.49 2.149.979 2.794.805 1.039 1.925 1.54 3.395 1.54 1.085 0 1.96-.251 2.555-.788s.909-1.146.909-1.827c0-.645-.28-1.254-.84-1.791s-1.889-1.003-3.954-1.469c-3.394-.788-5.774-1.827-7.244-3.117-1.434-1.29-2.169-2.937-2.169-4.944 0-1.325.385-2.543 1.12-3.726s1.854-2.078 3.359-2.758 3.534-1.003 6.124-1.003c3.184 0 5.634.609 7.279 1.827 1.679 1.218 2.659 3.152 2.974 5.803l-7.279.43c-.21-1.146-.594-1.97-1.224-2.508s-1.47-.788-2.555-.788c-.91 0-1.575.179-2.03.573s-.664.86-.664 1.433c0 .394.175.788.559 1.11.35.322 1.225.645 2.59.931 3.359.752 5.774 1.505 7.244 2.257s2.519 1.72 3.184 2.83.98 2.4.98 3.797a8.19 8.19 0 0 1-1.33 4.514c-.875 1.397-2.134 2.436-3.709 3.152s-3.604 1.075-6.019 1.075c-4.234 0-7.174-.824-8.819-2.508s-2.554-3.797-2.764-6.377z" fill="#225e63"/></svg>