<svg xmlns="http://www.w3.org/2000/svg" width="150" height="48" fill="none" xmlns:v="https://vecta.io/nano"><path d="M58.258 17.357c-.252.252-.629.503-.881.881-1.006 1.006-1.887 2.139-2.139 3.648-.377 2.013 0 3.9 1.258 5.535.629.881 1.384 1.51 2.264 1.887.126 0 .252.126.377.126l-.377 1.006c-.755 1.887-1.761 3.648-3.145 5.158-.252.252-.503.503-.881.755-1.006.881-2.139 1.132-3.397.755-.629-.126-1.258-.377-1.887-.629a5.7 5.7 0 0 0-2.013-.377c-.881 0-1.635.252-2.39.503-.629.252-1.258.503-1.887.629-1.006.252-1.887-.126-2.642-.629-.881-.503-1.51-1.258-2.013-2.139-1.384-2.013-2.516-4.151-3.145-6.542-.755-2.139-.881-4.277-.629-6.416.252-1.887 1.006-3.648 2.39-5.032 1.384-1.51 3.145-2.139 5.158-1.887 1.006 0 1.887.377 2.894.629.377.126.755.252 1.258.252.629.126 1.132.126 1.761-.126.629-.126 1.51-.377 2.264-.629 1.132-.377 2.39-.503 3.522-.252 1.51.252 2.768 1.132 3.774 2.265.252.252.377.377.503.629 0-.126 0-.126 0 0zM52.345 7.67c0 .377.126.629 0 1.006-.126 1.761-.755 3.271-2.013 4.529-.503.629-1.132 1.006-1.887 1.384-.629.252-1.258.252-2.013.377.252-4.026 2.139-6.542 5.913-7.297z" fill="#13130a"/><path d="M66.921 35.692h3.909v-7.291h4.13c4.984 0 7.66-2.992 7.66-7.144 0-4.12-2.645-7.144-7.607-7.144h-8.092v21.578zm3.909-10.505V17.38h3.582c2.929 0 4.225 1.58 4.225 3.877s-1.296 3.93-4.204 3.93H70.83zm19.058 10.832c2.539 0 4.057-1.191 4.752-2.55h.126v2.223h3.667V24.861c0-4.278-3.487-5.563-6.575-5.563-3.403 0-6.016 1.517-6.859 4.467l3.561.506c.379-1.106 1.454-2.055 3.319-2.055 1.77 0 2.74.906 2.74 2.497v.063c0 1.096-1.148 1.148-4.004 1.454-3.14.337-6.143 1.275-6.143 4.92 0 3.182 2.328 4.868 5.416 4.868zm.99-2.803c-1.591 0-2.729-.727-2.729-2.128 0-1.465 1.275-2.076 2.982-2.318 1.001-.137 3.003-.39 3.498-.79v1.907c0 1.802-1.454 3.329-3.751 3.329zm12.854 8.545c2.972 0 4.689-1.528 5.606-4.109l6.501-18.122-4.078-.021-3.74 12.222h-.169l-3.73-12.222h-4.046l5.869 16.521-.327.875c-.705 1.844-1.822 1.97-3.487 1.486l-.885 2.971c.516.211 1.443.4 2.486.4z" fill="#000"/></svg>