<svg xmlns="http://www.w3.org/2000/svg" width="87" height="35" fill="none" xmlns:v="https://vecta.io/nano"><path d="M40.247 26.692h-3.165V2.109h8.39c2.126 0 3.939.708 5.423 2.123 1.516 1.415 2.275 3.143 2.275 5.183 0 2.09-.758 3.817-2.275 5.216-1.467 1.399-3.28 2.09-5.423 2.09h-5.225v9.971zm0-21.555v8.573h5.291c1.253 0 2.308-.428 3.132-1.267.841-.839 1.269-1.859 1.269-3.011 0-1.135-.429-2.139-1.269-2.978-.824-.872-1.863-1.3-3.132-1.3h-5.291v-.016zm21.197 4.18c2.341 0 4.187.625 5.538 1.876s2.028 2.962 2.028 5.134v10.366h-3.017v-2.337h-.132c-1.302 1.925-3.049 2.88-5.225 2.88-1.863 0-3.412-.543-4.665-1.645s-1.879-2.468-1.879-4.114c0-1.744.659-3.126 1.978-4.146 1.319-1.037 3.082-1.547 5.275-1.547 1.879 0 3.429.346 4.632 1.037v-.724c0-1.103-.428-2.024-1.302-2.797a4.47 4.47 0 0 0-3.066-1.152c-1.764 0-3.165.74-4.187 2.238l-2.786-1.744c1.533-2.221 3.808-3.324 6.808-3.324zm-4.088 12.209c0 .823.346 1.514 1.055 2.057.692.543 1.517.823 2.456.823 1.335 0 2.522-.494 3.56-1.481s1.566-2.139 1.566-3.472c-.989-.773-2.357-1.168-4.121-1.168-1.286 0-2.357.313-3.214.921-.874.642-1.302 1.415-1.302 2.32zM86.219 9.86l-10.55 24.22h-3.264l3.923-8.474L69.373 9.86h3.445l5.011 12.077h.066L82.774 9.86h3.445z" fill="#3c4043"/><path d="M27.659 14.729c0-1.03-.092-2.016-.264-2.963H14.129v5.43l7.64.002a6.53 6.53 0 0 1-2.835 4.374v3.523h4.548c2.656-2.453 4.177-6.08 4.177-10.364z" fill="#4285f4"/><path d="M18.936 21.571c-1.266.852-2.896 1.351-4.803 1.351-3.684 0-6.809-2.478-7.929-5.818H1.512v3.633C3.837 25.34 8.614 28.5 14.132 28.5c3.814 0 7.019-1.252 9.351-3.408l-4.548-3.521z" fill="#34a853"/><path d="M5.762 14.409c0-.938.157-1.844.442-2.697V8.079H1.512a14 14 0 0 0-1.502 6.33c0 2.277.542 4.426 1.502 6.33l4.691-3.633c-.285-.852-.442-1.759-.442-2.697z" fill="#fabb05"/><path d="M14.132 5.893c2.082 0 3.946.716 5.418 2.114l4.03-4.02C21.133 1.712 17.942.315 14.132.315c-5.517 0-10.296 3.159-12.62 7.763l4.691 3.633c1.119-3.34 4.245-5.818 7.929-5.818z" fill="#e94235"/></svg>