<svg xmlns="http://www.w3.org/2000/svg" width="150" height="28" fill="none" xmlns:v="https://vecta.io/nano"><g clip-path="url(#A)"><path d="M17.39 27.32c7.173 0 12.987-6.027 12.987-13.462S24.562.395 17.39.395 4.402 6.422 4.402 13.858 10.217 27.32 17.39 27.32z" fill="#eb001b"/><path d="M33.077 27.32c7.173 0 12.987-6.027 12.987-13.462S40.249.395 33.077.395 20.089 6.423 20.089 13.858 25.904 27.32 33.077 27.32z" fill="#f79e1b"/><path d="M25.23 3.106c3.127 2.456 5.14 6.349 5.14 10.724s-2.014 8.275-5.14 10.731c-3.127-2.456-5.14-6.349-5.14-10.731s2.02-8.268 5.14-10.724z" fill="#ff5f00"/><path d="M40.852 22.797v.114h-.239v.644h-.117v-.644h-.239v-.114h.596zm.913 0v.758h-.117v-.624l-.214.55h-.13l-.214-.544v.617h-.117v-.758h.181l.214.544.214-.544h.181z" fill="#f79e1b"/><path d="M149.094 14.307v.114h-.24v.644h-.116v-.644h-.24v-.114h.596zm.906 0v.758h-.117v-.624l-.213.55h-.123l-.214-.544v.617h-.116v-.758h.181l.214.544.213-.544H150zM60.365 5.791c1.988 0 3.392 1.416 3.392 3.443v5.436h-1.832V9.858c0-1.456-.725-2.268-1.942-2.268s-2.162.805-2.162 2.288v4.798h-1.832V9.864c0-1.456-.725-2.268-1.942-2.268s-2.162.805-2.162 2.288v4.798h-1.832V6.026h1.813v1.054c.673-1.02 1.709-1.282 2.564-1.282 1.275 0 2.311.584 2.888 1.544.725-1.248 2.014-1.55 3.049-1.55zm14.023.221v8.657h-1.819v-1.04c-.576.765-1.437 1.262-2.622 1.262-2.337 0-4.176-1.906-4.176-4.55s1.839-4.55 4.176-4.55c1.185 0 2.046.503 2.622 1.275V6.012h1.819zm-4.228 1.557c-1.567 0-2.519 1.255-2.519 2.772s.952 2.772 2.519 2.772 2.518-1.195 2.518-2.772-1.01-2.772-2.518-2.772zm13.395-.859l-.783 1.47a5.27 5.27 0 0 0-2.577-.738c-1.036 0-1.58.416-1.58 1.027s.609.778 1.379.893l.861.134c1.819.268 2.9 1.074 2.9 2.557 0 1.664-1.392 2.825-3.8 2.825-.861 0-2.363-.174-3.58-1.114l.848-1.416c.602.476 1.392.886 2.751.886 1.243 0 1.897-.409 1.897-1.054 0-.49-.453-.812-1.444-.96l-.874-.114c-1.845-.262-2.829-1.148-2.829-2.537 0-1.718 1.327-2.772 3.451-2.772 1.308 0 2.518.336 3.379.913zm7.879-.698V7.73h-3.198v3.765c0 1.168.596 1.617 1.327 1.617.563 0 1.185-.262 1.683-.584l.725 1.51c-.673.47-1.515.859-2.564.859-1.891 0-2.998-1.054-2.998-3.362V7.73h-1.664V6.012h1.664V3.395h1.832v2.617h3.192zm5.619-.221c2.337 0 3.937 1.846 3.949 4.543l-.032.705h-6.17c.246 1.557 1.301 2.201 2.486 2.201.835 0 1.729-.342 2.415-.913l.907 1.349c-1.017.906-2.169 1.221-3.432 1.221-2.499 0-4.273-1.805-4.273-4.55-.007-2.718 1.696-4.557 4.15-4.557zm-.032 1.678c-1.301 0-2.02.866-2.214 2.134h4.331c-.201-1.349-.958-2.134-2.117-2.134zm10.307-1.678c.557 0 .984.074 1.405.242l-.434 1.872c-.382-.208-.939-.315-1.386-.315-1.158 0-1.987.852-1.987 2.322v4.758h-1.819V6.012h1.806v.973c.544-.819 1.398-1.195 2.415-1.195zm7.542 0c2.337 0 4.176 1.906 4.176 4.55s-1.839 4.55-4.176 4.55c-1.185 0-2.039-.497-2.615-1.255v4.644h-1.82V6.012h1.82v1.027c.576-.752 1.43-1.248 2.615-1.248zm-.22 1.778c-1.508 0-2.518 1.195-2.518 2.772s1.01 2.772 2.518 2.772 2.518-1.255 2.518-2.772-.951-2.772-2.518-2.772zm14.509-1.557v8.657h-1.82v-1.04c-.576.765-1.437 1.262-2.622 1.262-2.337 0-4.175-1.906-4.175-4.55s1.838-4.55 4.175-4.55c1.185 0 2.046.503 2.622 1.275V6.012h1.82zm-4.228 1.557c-1.567 0-2.518 1.255-2.518 2.772s.951 2.772 2.518 2.772 2.518-1.195 2.518-2.772-1.01-2.772-2.518-2.772zm13.395-.859l-.783 1.47a5.27 5.27 0 0 0-2.577-.738c-1.036 0-1.58.416-1.58 1.027s.609.778 1.379.893l.861.134c1.82.268 2.901 1.074 2.901 2.557 0 1.664-1.392 2.825-3.801 2.825-.861 0-2.363-.174-3.58-1.114l.848-1.416c.602.476 1.392.886 2.752.886 1.243 0 1.897-.409 1.897-1.054 0-.49-.453-.812-1.444-.96l-.874-.114c-1.845-.262-2.829-1.148-2.829-2.537 0-1.718 1.327-2.772 3.451-2.772 1.307 0 2.518.336 3.379.913zm8.656 0l-.783 1.47a5.27 5.27 0 0 0-2.577-.738c-1.036 0-1.58.416-1.58 1.027s.609.778 1.379.893l.861.134c1.82.268 2.901 1.074 2.901 2.557 0 1.664-1.392 2.825-3.801 2.825-.861 0-2.363-.174-3.58-1.114l.848-1.416c.602.476 1.392.886 2.752.886 1.243 0 1.897-.409 1.897-1.054 0-.49-.453-.812-1.444-.96l-.874-.114c-1.845-.262-2.829-1.148-2.829-2.537 0-1.718 1.327-2.772 3.451-2.772 1.307 0 2.518.336 3.379.913zM52.26 19.347c1.101 0 1.962.893 1.962 2.141s-.861 2.141-1.962 2.141c-.557 0-.958-.235-1.23-.591v.483h-.855v-6.114h.855v2.53c.265-.356.673-.591 1.23-.591zm-.104.839c-.706 0-1.185.564-1.185 1.302s.473 1.302 1.185 1.302 1.185-.591 1.185-1.302-.447-1.302-1.185-1.302zm6.623-.732l-3.101 5.792h-.952l1.405-2.557-1.735-3.235h.958l1.262 2.335 1.217-2.335h.945zm7.296-.107c.932 0 1.593.664 1.593 1.617v2.557h-.861V21.26c0-.684-.343-1.067-.913-1.067s-1.016.376-1.016 1.074v2.255h-.861V21.26c0-.684-.337-1.067-.913-1.067s-1.016.376-1.016 1.074v2.255h-.861v-4.067h.855v.497c.317-.483.803-.604 1.204-.604.596 0 1.088.275 1.353.725.343-.577.952-.725 1.437-.725zm6.507.107v4.067h-.855v-.49c-.272.362-.673.597-1.23.597-1.101 0-1.962-.893-1.962-2.141s.868-2.141 1.962-2.141c.557 0 .965.235 1.23.597v-.49h.855zm-1.988.732c-.738 0-1.185.591-1.185 1.302s.447 1.302 1.185 1.302 1.185-.564 1.185-1.302c0-.745-.473-1.302-1.185-1.302zm6.215-.403l-.369.691c-.24-.154-.725-.349-1.211-.349s-.745.195-.745.483.285.362.647.423l.408.067c.855.127 1.366.503 1.366 1.201 0 .779-.654 1.329-1.787 1.329-.408 0-1.107-.081-1.683-.524l.395-.664c.285.228.654.416 1.295.416.583 0 .894-.188.894-.497 0-.228-.214-.382-.68-.45l-.408-.054c-.868-.121-1.334-.537-1.334-1.195 0-.805.622-1.302 1.625-1.302.609-.007 1.178.148 1.586.423zm3.619-.329v.805h-1.502v1.772c0 .55.278.758.622.758.265 0 .557-.121.79-.275l.337.711c-.317.222-.712.403-1.204.403-.887 0-1.411-.497-1.411-1.577V20.26h-.783v-.805h.783v-1.228h.861v1.228h1.508zm2.557-.107c1.101 0 1.852.866 1.858 2.134a2.63 2.63 0 0 1-.019.329h-2.9c.117.732.609 1.034 1.165 1.034.395 0 .809-.161 1.133-.429l.427.631c-.479.423-1.023.57-1.612.57-1.178 0-2.007-.852-2.007-2.141.007-1.262.803-2.127 1.955-2.127zm-.013.792c-.608 0-.952.409-1.042 1h2.033c-.091-.631-.447-1-.991-1zm4.758-.792a1.69 1.69 0 0 1 .66.114l-.207.879c-.181-.101-.44-.148-.654-.148-.544 0-.932.396-.932 1.094v2.235h-.855v-4.067h.848v.456c.259-.383.66-.564 1.139-.564zm2.998 0c.583 0 1.12.221 1.463.651l-.55.604c-.272-.268-.563-.423-.945-.423-.66 0-1.159.537-1.159 1.302s.499 1.302 1.159 1.302c.376 0 .712-.181.965-.423l.531.611c-.356.43-.88.651-1.463.651-1.249 0-2.065-.919-2.065-2.141s.816-2.134 2.065-2.134zm5.95.107v4.067h-.855v-.49c-.272.362-.673.597-1.23.597-1.101 0-1.962-.893-1.962-2.141s.861-2.141 1.962-2.141c.557 0 .965.235 1.23.597v-.49h.855zm-1.981.732c-.738 0-1.185.591-1.185 1.302s.447 1.302 1.185 1.302 1.185-.564 1.185-1.302c-.007-.745-.479-1.302-1.185-1.302zm5.16-.839a1.69 1.69 0 0 1 .66.114l-.207.879c-.182-.101-.441-.148-.654-.148-.544 0-.932.396-.932 1.094v2.235h-.855v-4.067h.848v.456c.252-.383.654-.564 1.139-.564zm3.049 0c.557 0 .965.235 1.23.597v-2.537h.855v6.114h-.855v-.49c-.272.362-.673.597-1.23.597-1.101 0-1.962-.893-1.962-2.141s.868-2.141 1.962-2.141zm.103.839c-.738 0-1.184.591-1.184 1.302s.446 1.302 1.184 1.302 1.185-.564 1.185-1.302-.472-1.302-1.185-1.302z" fill="#000"/></g><defs><clipPath id="A"><path fill="#fff" transform="translate(0 .395)" d="M0 0h150v26.925H0z"/></clipPath></defs></svg>