<svg xmlns="http://www.w3.org/2000/svg" width="166" height="40" fill="none" xmlns:v="https://vecta.io/nano"><path d="M76.553 24.169v-5.402c0-2.038-1.3-3.411-3.392-3.429a3.34 3.34 0 0 0-3.029 1.534c-.293-.488-.712-.889-1.214-1.159s-1.066-.4-1.635-.376a2.85 2.85 0 0 0-2.521 1.282v-1.08h-1.876v8.629h1.894V19.39c0-1.498.828-2.291 2.11-2.291s1.876.81 1.876 2.273v4.797h1.894V19.39c0-1.498.864-2.291 2.11-2.291s1.894.81 1.894 2.273v4.797h1.887zm28.03-8.622h-3.065v-2.615h-1.894v2.615h-1.75v1.714h1.75v3.929c0 2.002.774 3.194 2.992 3.194a4.41 4.41 0 0 0 2.345-.666l-.522-1.606a3.47 3.47 0 0 1-1.661.486c-.936 0-1.246-.576-1.246-1.441v-3.897h3.065l-.014-1.714zm16-.216c-.457-.013-.91.097-1.31.319a2.54 2.54 0 0 0-.962.945v-1.048h-1.858v8.622h1.876v-4.833c0-1.441.612-2.218 1.84-2.218.402-.006.801.068 1.174.216l.576-1.768a4 4 0 0 0-1.336-.234zm-24.19.9c-1.062-.631-2.284-.944-3.519-.9-2.182 0-3.601 1.048-3.601 2.759 0 1.408 1.048 2.272 2.975 2.543l.882.126c1.026.144 1.516.414 1.516.9 0 .666-.684 1.048-1.966 1.048-1.034.033-2.049-.284-2.881-.9l-.846 1.459a6.22 6.22 0 0 0 3.735 1.12c2.489 0 3.933-1.174 3.933-2.813 0-1.516-1.138-2.308-3.011-2.579l-.882-.126c-.81-.108-1.462-.27-1.462-.846 0-.63.612-1.008 1.642-1.008.944.014 1.868.268 2.686.738l.8-1.52zm50.253-.9c-.457-.013-.91.097-1.31.319a2.54 2.54 0 0 0-.962.945v-1.048h-1.859v8.622h1.877v-4.833c0-1.441.612-2.218 1.84-2.218.402-.006.801.068 1.174.216l.576-1.768c-.429-.153-.88-.232-1.336-.234zm-24.168 4.527c0 2.614 1.822 4.527 4.598 4.527 1.126.056 2.232-.312 3.101-1.03l-.889-1.513a3.79 3.79 0 0 1-2.255.774c-1.498 0-2.596-1.102-2.596-2.759s1.102-2.741 2.596-2.759c.815.009 1.606.28 2.255.774l.9-1.516c-.869-.718-1.975-1.086-3.101-1.03-2.776 0-4.599 1.912-4.599 4.527l-.01.004zm17.567 0v-4.322h-1.876v1.048a3.27 3.27 0 0 0-2.723-1.264c-2.417 0-4.322 1.894-4.322 4.527s1.895 4.527 4.322 4.527a3.27 3.27 0 0 0 2.723-1.264v1.044h1.876v-4.296zm-6.98 0c0-1.516.991-2.759 2.615-2.759 1.552 0 2.597 1.192 2.597 2.759s-1.045 2.759-2.597 2.759c-1.624 0-2.615-1.246-2.615-2.759zm-22.637-4.527c-2.521 0-4.293 1.84-4.293 4.527 0 2.741 1.84 4.527 4.419 4.527a5.24 5.24 0 0 0 3.536-1.21l-.918-1.39a4.11 4.11 0 0 1-2.521.9c-1.21 0-2.309-.558-2.579-2.11h6.414l.036-.72c0-2.687-1.678-4.527-4.094-4.527v.004zm-.036 1.678c1.21 0 1.984.756 2.182 2.092h-4.473c.198-1.246.954-2.092 2.291-2.092zm47.062 2.849v-7.775h-1.877v4.509c-.32-.413-.734-.743-1.207-.963a3.27 3.27 0 0 0-1.515-.301c-2.417 0-4.322 1.894-4.322 4.527s1.894 4.527 4.322 4.527c.521.023 1.041-.08 1.514-.3s.888-.549 1.208-.961v1.044h1.877v-4.307zm-6.98 0c0-1.516.991-2.759 2.615-2.759 1.552 0 2.596 1.192 2.596 2.759s-1.044 2.759-2.596 2.759c-1.624 0-2.615-1.246-2.615-2.759zm-63.347 0v-4.322h-1.876v1.048a3.27 3.27 0 0 0-2.723-1.264c-2.416 0-4.322 1.894-4.322 4.527s1.894 4.527 4.322 4.527a3.27 3.27 0 0 0 2.723-1.264v1.044h1.876v-4.296zm-6.979 0c0-1.516.99-2.759 2.615-2.759 1.552 0 2.597 1.192 2.597 2.759s-1.044 2.759-2.597 2.759c-1.628 0-2.618-1.242-2.618-2.759h.004zm79.492 4.322h-.101v-.411l-.148.36h-.086l-.126-.36v.411h-.083v-.504h.126l.148.36.147-.36h.126l-.003.504zm.338-.504a.3.3 0 0 1 .108.018c.031.011.059.028.083.05s.042.049.054.079.019.069.018.104-.005.071-.018.104-.03.057-.054.079-.052.04-.083.05c-.036.006-.072.006-.108 0h-.201v-.504l.201.018zm-.119.076v.36h.119a.21.21 0 0 0 .076 0c.02-.008.038-.02.053-.035s.027-.034.033-.055.004-.048 0-.072c.004-.024.004-.048 0-.072s-.018-.038-.032-.054-.034-.028-.054-.036a.22.22 0 0 0-.076 0l-.119-.036z" fill="#231f20"/><path d="M38.945 9.608H27.601v20.387h11.344V9.608z" fill="#ff5f00"/><path d="M28.321 19.807c-.002-1.963.444-3.901 1.301-5.667s2.106-3.313 3.65-4.525c-1.913-1.503-4.209-2.438-6.628-2.697s-4.862.167-7.05 1.23-4.032 2.721-5.323 4.783-1.975 4.446-1.975 6.878.684 4.816 1.975 6.878 3.135 3.719 5.323 4.783 4.631 1.49 7.05 1.23 4.716-1.194 6.628-2.697c-1.545-1.212-2.793-2.76-3.651-4.527a12.94 12.94 0 0 1-1.301-5.669z" fill="#eb001b"/><path d="M53.3 27.846h-.083v-.414l-.148.36h-.086l-.148-.36v.411h-.083v-.504h.126l.148.36.148-.36h.126v.508zm.36-.515h.065l.058.022.05.032a.21.21 0 0 1 .036.043l-.068.047c-.015-.022-.034-.041-.058-.054a.17.17 0 0 0-.083-.018.19.19 0 0 0-.072 0 .17.17 0 0 0-.058.036c-.016.017-.028.036-.036.058a.21.21 0 0 0 0 .148c.008.021.02.041.036.058a.17.17 0 0 0 .058.036c.024.005.048.005.072 0 .028.001.055-.006.079-.018s.045-.031.061-.054l.065.047c-.011.016-.025.031-.04.043l-.047.032-.058.022h-.065c-.037.001-.074-.005-.108-.018a.24.24 0 0 1-.083-.054c-.023-.024-.042-.052-.054-.083a.29.29 0 0 1 0-.209c.012-.031.031-.059.054-.083a.23.23 0 0 1 .083-.054c.038-.001.076.007.112.022zm.59-7.524c0 2.433-.685 4.816-1.975 6.879s-3.136 3.719-5.324 4.782-4.631 1.489-7.05 1.229a12.96 12.96 0 0 1-6.628-2.699 12.96 12.96 0 0 0 3.65-4.527 12.97 12.97 0 0 0 0-11.334 12.96 12.96 0 0 0-3.65-4.527c1.913-1.504 4.21-2.439 6.629-2.699s4.863.167 7.051 1.23 4.033 2.721 5.324 4.784a12.96 12.96 0 0 1 1.974 6.88z" fill="#f79e1b"/></svg>