<svg xmlns="http://www.w3.org/2000/svg" width="103" height="20" fill="none" xmlns:v="https://vecta.io/nano"><path d="M38.925 19.784c-1.121-.43-2.316-.727-3.351-1.316-3.57-2.037-5.419-6.245-4.612-10.221.868-4.27 4.127-7.397 8.269-7.882.765-.089 1.548-.013 2.484-.013l-1.683 2.599c-.074.109-.302.128-.463.153-3.394.535-5.677 2.968-6.038 6.438-.386 3.723 2.714 7.292 6.388 7.489 3.963.213 7.371-2.965 7.282-7.114-.018-.839-.341-1.668-.484-2.51-.045-.268-.053-.609.072-.829.407-.719.884-1.397 1.375-2.154a9.47 9.47 0 0 1 1.669 4.164c.817 5.365-2.874 10.255-7.824 11.079-.079.013-.151.076-.225.116l-2.857.001zM102.184 7.87c-.037.077-.092.149-.11.23-.571 2.621-2.384 4.165-5.042 4.257l-2.874.005v3.345 3.265h-3.492V1.106l2.143.003 4.918.153c2.299.278 3.805 1.828 4.324 4.125.028.127.087.245.132.366V7.87zm-7.987 1.436c.788 0 1.549.076 2.289-.017 1.268-.159 2.053-1.092 2.165-2.418.092-1.102-.56-2.229-1.623-2.491-.903-.222-1.856-.226-2.831-.333v5.259zM0 1.145h13.997v17.829h-3.506V4.316H3.506v14.647H0V1.145zm21.008 11.221v6.61H17.55V1.199c.012-.011.044-.064.075-.064l7.06.149c2.409.226 4.171 2.307 4.346 4.783.147 2.077-.263 3.963-2.044 5.268-.94.69-2.023.983-3.165 1.024l-2.814.005zm.039-3.041l2.143-.009c1.242-.093 2.047-.886 2.272-2.154.202-1.139-.313-2.246-1.297-2.696-1-.458-2.052-.342-3.119-.294v5.154zm44.241 5.032l-.017 3.671a.72.72 0 0 1-.356.521c-5.965 2.66-12.343-.852-13.134-6.981-.488-3.775.511-7.072 3.68-9.278 2.944-2.049 6.184-2.131 9.443-.679.177.079.36.378.365.579.035 1.167.017 2.335.017 3.676-1.364-1.416-2.912-2.125-4.749-1.967-1.861.159-3.316 1.058-4.329 2.667-1.635 2.595-1.211 6.21.949 8.163 2.311 2.089 5.352 1.98 8.131-.372zm7.411-10.071h-3.855V1.151h11.223V4.25h-3.84v14.699h-3.528V4.286zm10.935 14.679V1.15h3.456v17.815h-3.456z" fill="#114c8d"/><path d="M36.235 10.108c-.121-2.266 1.764-4.253 4.015-4.333 2.336-.084 4.358 1.933 4.324 4.31-.032 2.331-1.936 4.279-4.162 4.211v-2.378c.22-.072.47-.128.697-.233.745-.346 1.163-1.176.998-1.95-.177-.833-.823-1.421-1.614-1.471-.826-.051-1.627.48-1.793 1.308-.092.46-.27.566-.683.545-.579-.032-1.16-.009-1.782-.009z" fill="#ffcc0b"/></svg>