<svg xmlns="http://www.w3.org/2000/svg" width="150" height="26" fill="none" xmlns:v="https://vecta.io/nano"><path d="M22.38.573l-5.224 11.76-3.11 7.64h-.062l-.56-7.64-.544-6.163-.498-5.597H.101v.858h.42c5.69.343 7.136 4 7.509 5.871l-.684-5.871.715 6.043c-.016-.051-.016-.12-.031-.172l.124 1.099v-.137l1.99 17.031h5.768L27.931.573h-5.55zM35.704.487l-4.416 24.739h-4.975L30.729.487h4.975zm.342 19.022c1.384.876 3.358 1.579 5.488 1.579 1.928 0 3.7-.961 3.7-2.901 0-1.391-.995-2.318-3.14-3.485-2.488-1.425-4.835-3.331-4.835-6.575 0-4.996 4.105-8.035 9.188-8.035 2.83 0 4.493.652 5.488 1.253L49.712 5.74c-.762-.446-1.353-1.322-3.685-1.288-2.317.034-3.529 1.425-3.529 2.781 0 1.425 1.415 2.318 3.389 3.485 2.83 1.579 4.633 3.588 4.633 6.524 0 5.511-4.291 8.326-9.468 8.326-3.249 0-5.892-1.425-6.996-2.318l1.99-3.743zm21.688-.704l-2.767 6.421h-5.286L61.015.487h6.39l2.736 24.739h-5.224l-.482-6.421h-6.701zm6.499-4.034l-.451-5.322-.342-4.841h-.062c-.591 1.511-1.244 3.416-1.866 4.841l-2.317 5.322h5.037zm13.511 11.056c-1.508 0-2.659-.412-3.483-1.219-.824-.824-1.228-1.992-1.228-3.502 0-1.202.187-2.3.544-3.279s.855-1.82 1.493-2.541c.622-.687 1.353-1.236 2.223-1.631a6.49 6.49 0 0 1 2.721-.584c.762 0 1.477.086 2.13.258s1.244.429 1.772.755l-.653 2.97h-.327c-.466-.566-.948-.978-1.415-1.236s-1.026-.395-1.648-.395c-1.104 0-2.021.498-2.752 1.476-.715.979-1.073 2.232-1.073 3.76 0 .979.202 1.682.591 2.129.404.446.98.652 1.741.652.684 0 1.337-.154 1.928-.463.606-.309 1.166-.687 1.71-1.168h.295l-.653 2.936-.777.36c-.295.137-.591.258-.855.343-.358.12-.7.206-1.01.258-.28.103-.715.12-1.275.12zm15.236-7.399c0 .137-.016.309-.031.515s-.047.412-.093.635l-1.259 6.026h-2.721l.964-4.601.171-.893c.047-.24.062-.463.062-.652 0-.36-.078-.635-.249-.79s-.466-.24-.902-.24c-.218 0-.466.051-.746.154s-.591.258-.933.463l-1.368 6.575H83.17l2.674-12.842h2.705l-.964 4.601c.544-.395 1.057-.721 1.508-.944a3.39 3.39 0 0 1 1.508-.343c.762 0 1.353.206 1.757.618.42.378.622.961.622 1.717zm5.426 7.416c-1.43 0-2.534-.343-3.312-1.047s-1.166-1.665-1.166-2.901c0-.841.124-1.614.389-2.318a5.44 5.44 0 0 1 1.104-1.854c.451-.515 1.026-.927 1.726-1.236.684-.309 1.446-.446 2.27-.446 1.244 0 2.192.275 2.83.841s.948 1.391.948 2.472a5.14 5.14 0 0 1-.109 1.099c-.078.361-.155.721-.264 1.064h-6.25v.206c0 .635.202 1.15.622 1.511.404.36 1.042.549 1.881.549.591 0 1.15-.103 1.679-.326s.98-.464 1.368-.738h.296l-.498 2.386c-.529.258-1.073.446-1.648.567-.606.12-1.213.172-1.866.172zm2.053-6.06c.015-.103.031-.189.031-.275s.015-.172.015-.258c0-.429-.124-.773-.373-.996-.249-.24-.591-.343-1.057-.343-.56 0-1.026.172-1.399.498s-.669.79-.855 1.391h3.638v-.017zm7.322 6.06c-.575 0-1.103-.086-1.617-.24s-.932-.395-1.305-.738a3.47 3.47 0 0 1-.856-1.219c-.202-.481-.311-1.064-.311-1.7 0-.824.14-1.597.436-2.318a5.39 5.39 0 0 1 1.212-1.871c.514-.515 1.135-.944 1.866-1.236.731-.309 1.524-.463 2.379-.463.513 0 1.026.069 1.524.189.513.12.979.309 1.414.549l-.575 2.541h-.389c-.295-.395-.621-.687-.995-.876s-.793-.292-1.243-.292c-.84 0-1.524.326-2.037.996s-.777 1.494-.777 2.489c0 .687.155 1.202.482 1.545.31.343.808.515 1.476.515.514 0 .996-.12 1.415-.343.42-.24.793-.498 1.089-.773h.388l-.575 2.541c-.544.258-1.011.446-1.415.549s-.933.155-1.586.155zm13.293-.258h-2.829l-1.664-4.086-1.181 1.167-.622 2.936h-2.706l2.675-12.842h2.705l-1.602 7.657 3.763-4.086h3.094l-3.887 4.034 2.254 5.219zm10.557-5.871c0 .875-.124 1.682-.389 2.438s-.637 1.408-1.119 1.957c-.498.567-1.073.996-1.726 1.305s-1.43.463-2.301.463c-1.244 0-2.208-.326-2.876-.996-.669-.652-.995-1.579-.995-2.747 0-.824.124-1.614.373-2.352a5.91 5.91 0 0 1 1.104-1.957 5.2 5.2 0 0 1 1.741-1.322c.684-.326 1.462-.481 2.317-.481 1.259 0 2.207.326 2.876.979.653.67.995 1.562.995 2.713zm-3.498 3.039a4.28 4.28 0 0 0 .513-1.27c.124-.464.171-1.013.171-1.665 0-.567-.109-.996-.342-1.305-.218-.309-.575-.463-1.073-.463-.373 0-.715.103-.995.309a2.97 2.97 0 0 0-.762.858c-.202.343-.357.772-.482 1.288s-.171 1.03-.171 1.579c0 .635.125 1.082.389 1.356s.606.412 1.042.412c.326 0 .637-.103.932-.292.311-.189.56-.464.778-.807zm14.241-6.421l-1.943 9.271h-2.706l.218-1.03c-.264.189-.528.378-.793.532a3.37 3.37 0 0 1-.731.395c-.295.137-.559.223-.792.275s-.482.069-.716.069c-.73 0-1.321-.189-1.741-.584s-.637-.961-.637-1.734c0-.206.015-.395.031-.584a4.44 4.44 0 0 1 .093-.584l1.259-6.026h2.721l-.964 4.601c-.078.36-.124.652-.171.91-.031.258-.062.463-.062.652 0 .36.078.618.233.79.156.154.467.24.902.24.218 0 .466-.051.762-.154.28-.103.591-.258.933-.446l1.368-6.575h2.736v-.017zm3.42 9.442c-.932 0-1.601-.172-1.99-.515-.404-.343-.59-.841-.59-1.511a5.56 5.56 0 0 1 .031-.515c.031-.172.062-.361.093-.584l.917-4.395h-1.104l.405-1.957h1.104l.559-2.644h2.705l-.544 2.644h2.519l-.404 1.957h-2.519l-.7 3.348-.139.704c-.047.24-.063.429-.063.601 0 .326.078.567.249.687.171.137.42.189.777.189.14 0 .327-.034.545-.086a2.35 2.35 0 0 0 .544-.189h.217l-.419 1.992c-.311.086-.622.154-.964.189s-.762.086-1.229.086z" fill="#161e6f"/></svg>