<svg xmlns="http://www.w3.org/2000/svg" width="90" height="91" fill="none" xmlns:v="https://vecta.io/nano"><path d="M46.869 61.254v-2.224c0-1.538.316-2.945.947-4.222a7.6 7.6 0 0 1 2.801-3.089c1.236-.783 2.733-1.174 4.49-1.174 1.785 0 3.282.391 4.49 1.174a7.36 7.36 0 0 1 2.739 3.089c.618 1.277.927 2.685.927 4.222v2.224c0 1.538-.316 2.952-.947 4.243a7.48 7.48 0 0 1-2.76 3.09c-1.208.769-2.691 1.153-4.449 1.153-1.785 0-3.289-.385-4.511-1.153-1.222-.783-2.149-1.812-2.78-3.09-.632-1.291-.947-2.705-.947-4.243zm4.202-2.224v2.224c0 1.277.302 2.423.906 3.44.604 1.002 1.648 1.504 3.131 1.504 1.442 0 2.458-.501 3.048-1.504.604-1.016.906-2.163.906-3.44v-2.224c0-1.277-.288-2.417-.865-3.419-.577-1.016-1.607-1.524-3.089-1.524-1.442 0-2.478.508-3.11 1.524-.618 1.002-.927 2.142-.927 3.419zm-25.21-21.915V34.89c0-1.538.316-2.945.947-4.222a7.6 7.6 0 0 1 2.801-3.09c1.236-.783 2.733-1.174 4.49-1.174 1.785 0 3.282.391 4.49 1.174a7.36 7.36 0 0 1 2.739 3.09c.618 1.277.927 2.685.927 4.222v2.224c0 1.538-.316 2.952-.947 4.243a7.48 7.48 0 0 1-2.76 3.09c-1.208.769-2.691 1.153-4.449 1.153-1.785 0-3.289-.384-4.511-1.153-1.222-.783-2.149-1.812-2.781-3.09-.632-1.291-.947-2.705-.947-4.243zm4.202-2.224v2.224c0 1.277.302 2.424.906 3.44.604 1.002 1.648 1.504 3.131 1.504 1.442 0 2.458-.501 3.048-1.504.604-1.016.906-2.163.906-3.44V34.89c0-1.277-.288-2.417-.865-3.419-.577-1.016-1.606-1.524-3.089-1.524-1.442 0-2.478.508-3.11 1.524-.618 1.002-.927 2.142-.927 3.419zm-2.636 34.273l29-42.182h4.696l-29 42.182h-4.696z" fill="#e84f35"/></svg>