<svg xmlns="http://www.w3.org/2000/svg" width="90" height="91" fill="none" xmlns:v="https://vecta.io/nano"><rect x="14" y="17.163" width="63" height="42" rx="5" fill="#ffd0ce"/><rect x="19" y="27.163" width="14" height="11" rx="2" fill="#ff6a51"/><g stroke="#ffd0ce"><path d="M17.5 30.663H35m-17.5 3.5H35"/><path d="M23 34.163v-4m6 4v-4"/></g><g stroke="#e84f35" stroke-width="2" stroke-linecap="round"><path d="M51.5 45.163l-4.5-6 6.5-4M38.932 68.328l5.9 4.631-5.243 5.546" stroke-linejoin="round"/><path d="M44 73.163c-9.389 0-17-7.611-17-17s7.611-17 17-17m4 0c10.5 2 17 7.611 17 17s-7.611 17-17 17"/></g></svg>