<svg xmlns="http://www.w3.org/2000/svg" width="90" height="90" fill="none" xmlns:v="https://vecta.io/nano"><g clip-path="url(#A)"><g fill="#ffb0a3"><rect x="5" y="46.333" width="16.133" height="25.667" rx="2.2"/><rect x="26.267" y="33.133" width="16.133" height="38.867" rx="2.2"/><rect x="47.533" y="17" width="16.133" height="55" rx="2.2"/></g><circle cx="71" cy="46.333" r="19.067" fill="#e84f35"/><path d="M75.483 43.769l-.97 2.109H60.759l.759-2.109h13.964zm-1.814 4.219l-.97 2.109H60.759l.759-2.109h12.15zm4.303-9.914l-1.013 2.194a8.76 8.76 0 0 0-1.424-1.055 6.92 6.92 0 0 0-1.571-.685c-.549-.162-1.125-.243-1.73-.243-1.195 0-2.271.331-3.227.991s-1.712 1.635-2.267 2.922-.833 2.865-.833 4.736.278 3.449.833 4.736 1.311 2.261 2.267 2.922 2.032.991 3.227.991c.619 0 1.202-.081 1.751-.243a6.78 6.78 0 0 0 1.55-.664 8.81 8.81 0 0 0 1.34-.949l1.055 2.194c-.738.696-1.603 1.223-2.594 1.582-.991.352-2.025.527-3.101.527-1.73 0-3.262-.45-4.598-1.35-1.329-.9-2.373-2.18-3.132-3.839-.752-1.659-1.129-3.628-1.129-5.906s.376-4.247 1.129-5.906c.759-1.659 1.803-2.939 3.132-3.839 1.336-.9 2.869-1.35 4.598-1.35 1.118 0 2.162.193 3.132.58a8.1 8.1 0 0 1 2.605 1.656z" fill="#fff"/></g><defs><clipPath id="A"><path fill="#fff" d="M0 0h90v90H0z"/></clipPath></defs></svg>