<svg xmlns="http://www.w3.org/2000/svg" width="90" height="91" fill="none" xmlns:v="https://vecta.io/nano"><g fill="#ffd0ce"><rect x="8" y="20.163" width="50" height="11" rx="1"/><rect x="8" y="37.163" width="50" height="11" rx="1"/></g><rect x="8" y="54.163" width="50" height="11" rx="1" fill="#ff6a51"/><path d="M51.025 61.237L66.36 28.874a3 3 0 0 1 3.996-1.426l9.663 4.579a3 3 0 0 1 1.426 3.996L66.161 68.279a3 3 0 0 1-1.008 1.185l-9.628 6.639c-1.981 1.366-4.684-.04-4.703-2.447l-.086-11.111a3 3 0 0 1 .289-1.308z" fill="#e84f35"/></svg>