<svg xmlns="http://www.w3.org/2000/svg" width="90" height="90" fill="none" xmlns:v="https://vecta.io/nano"><rect x="14" y="17" width="63" height="42" rx="5" fill="#ffd0ce"/><rect x="19" y="27" width="14" height="11" rx="2" fill="#ff6a51"/><path d="M17.5 30.5H35M17.5 34H35" stroke="#ffd0ce"/><g clip-path="url(#A)"><path d="M70.986 57.669c-.03-.985-.12-1.967-.269-2.941l-5.147-.849-1.745-4.847 3.429-3.913c-1.037-1.715-2.271-3.305-3.676-4.736l-4.666 2.329-4.278-2.896.463-5.176c-1.798-.756-3.676-1.306-5.599-1.639l-2.427 4.609-5.174.121-2.655-4.483a25.95 25.95 0 0 0-5.673 1.995l.762 5.144-4.111 3.131-4.792-2.058a25.69 25.69 0 0 0-3.404 4.93l3.646 3.71-1.473 4.936-5.089 1.142c-.095 1.039-.127 2.082-.098 3.125a27.99 27.99 0 0 0 .26 2.853l5.149.863 1.728 4.853-3.456 3.905a26.2 26.2 0 0 0 3.673 4.754l4.68-2.317 4.269 2.908-.487 5.189a26.18 26.18 0 0 0 5.77 1.694l2.408-4.627 5.173-.142 2.666 4.476c1.961-.453 3.863-1.13 5.668-2.018l-.78-5.142 4.098-3.149 4.796 2.046c1.32-1.51 2.46-3.169 3.395-4.942l-3.668-3.697 1.456-4.946 5.096-1.15a26.34 26.34 0 0 0 .081-3.045zm-18.299 9.531a11.66 11.66 0 0 1-3.936 2.269 11.7 11.7 0 0 1-4.509.595 11.69 11.69 0 0 1-4.394-1.169c-1.373-.673-2.6-1.609-3.61-2.755-4.24-4.825-3.767-12.144 1.076-16.362a11.66 11.66 0 0 1 3.934-2.265c1.448-.491 2.979-.692 4.505-.594a11.69 11.69 0 0 1 4.391 1.167 11.64 11.64 0 0 1 3.608 2.751 11.58 11.58 0 0 1 2.275 3.916c.493 1.441.696 2.965.597 4.485s-.497 3.005-1.173 4.371a11.6 11.6 0 0 1-2.764 3.591z" fill="#e84f35"/></g><defs><clipPath id="A"><path fill="#fff" transform="translate(19 33)" d="M0 0h52v51H0z"/></clipPath></defs></svg>