<svg xmlns="http://www.w3.org/2000/svg" width="90" height="90" fill="none" xmlns:v="https://vecta.io/nano"><g clip-path="url(#A)"><g clip-path="url(#B)"><path d="M86.986 50.669c-.03-.985-.12-1.967-.269-2.941l-5.147-.849-1.745-4.847 3.429-3.913a25.85 25.85 0 0 0-3.676-4.736l-4.666 2.329-4.278-2.896.463-5.176c-1.798-.756-3.676-1.306-5.599-1.639l-2.427 4.609-5.174.121-2.655-4.483a25.95 25.95 0 0 0-5.673 1.995l.762 5.144-4.111 3.131-4.792-2.058c-1.324 1.506-2.466 3.161-3.404 4.93l3.646 3.71-1.472 4.936-5.089 1.142c-.095 1.039-.127 2.082-.098 3.125a27.96 27.96 0 0 0 .26 2.853l5.149.863 1.728 4.853-3.456 3.905c1.037 1.719 2.27 3.314 3.673 4.754l4.68-2.317 4.269 2.908-.487 5.189c1.851.784 3.788 1.352 5.77 1.694l2.408-4.627 5.173-.142 2.666 4.476c1.961-.453 3.863-1.13 5.668-2.018l-.78-5.142 4.099-3.149 4.796 2.046c1.32-1.51 2.46-3.169 3.395-4.942l-3.668-3.697 1.456-4.946 5.096-1.15c.086-1.013.113-2.03.081-3.045zm-18.299 9.531c-1.15 1.006-2.487 1.777-3.936 2.269a11.7 11.7 0 0 1-4.509.595 11.69 11.69 0 0 1-4.394-1.169c-1.373-.673-2.6-1.609-3.61-2.755-4.24-4.825-3.767-12.144 1.076-16.362a11.66 11.66 0 0 1 3.934-2.265c1.448-.491 2.979-.692 4.505-.594a11.69 11.69 0 0 1 4.391 1.167c1.372.672 2.598 1.607 3.608 2.751a11.58 11.58 0 0 1 2.275 3.916c.493 1.441.696 2.965.597 4.485a11.55 11.55 0 0 1-1.173 4.371 11.6 11.6 0 0 1-2.764 3.591z" fill="#e84f35"/></g><path d="M56.147 10.272c6.298-4.826 24.216-6.976 25.688-5.056s-5.86 18.204-12.004 22.913-17.993 9.927-23.149 11.948l-8.828-11.521c3.474-4.084 11.995-13.458 18.293-18.285z" fill="#ffd0ce"/><g fill="#ffa697"><path d="M33.471 22.508c2.514-.781 8.333-.813 10.928-.732l-6.559 7.122-12.734 2.113c4.558-5.585 5.851-7.722 8.365-8.503zm18.038 24.136c1.484-2.164 3.194-7.794 3.863-10.339l-8.819 3.871-4.347 11.559c6.36-2.836 7.818-2.927 9.303-5.092z"/></g><path d="M19.473 38.375c6.913-5.297 15.262-8.851 18.72-9.773l8.828 11.521c-1.972 2.73-7.24 10.119-14.306 15.534S12.894 60.28 8.18 59.829c1.633-5.823 4.381-16.157 11.293-21.454z" fill="#e84f35"/><g fill="#ff6a51"><path d="M29.781 36.572c3.749-2.873 8.296-4.777 10.182-5.263l4.904 6.4c-1.062 1.491-3.898 5.526-7.73 8.463s-10.818 2.42-13.401 2.142c.857-3.196 2.295-8.869 6.044-11.742z"/><circle cx="63.639" cy="18.855" r="5.564" transform="rotate(52.538 63.639 18.855)"/></g></g><defs><clipPath id="A"><path fill="#fff" d="M0 0h90v90H0z"/></clipPath><clipPath id="B"><path fill="#fff" transform="translate(35 26)" d="M0 0h52v51H0z"/></clipPath></defs></svg>