<svg xmlns="http://www.w3.org/2000/svg" width="90" height="90" fill="none" xmlns:v="https://vecta.io/nano"><style><![CDATA[.B{fill:#fca697}.C{fill:#ffd0ce}.D{fill:#e84f35}]]></style><g class="B"><path d="M15.431 24.165s1.006-.928 2.932.749l.892-1.388s-2.158-1.71-3.823.639z"/><path d="M18.957 20.106s-1.193 1.482.525 3.172l-1.16 1.168s-2.663-3.257.635-4.34z"/></g><path d="M14.072 60.063c1.273-1.942 3.17-3.393 5.378-4.112l7.874-2.919h7.512l7.874 2.919c2.204.722 4.096 2.172 5.366 4.112H14.072z" class="C"/><path d="M41.35 75.372h12.166l-.134-5.04c-.717-12.438-9.772-14.397-9.772-14.397-7.068-1.71-3.212 9.222-3.212 9.222-.216 2.642.175 6.181.953 10.215z" class="D"/><path d="M36.229 46.041H25.907v10.061h10.321V46.041z" class="C"/><path d="M47.213 75.372l.09-8.766c-.11-4.124-.989-7.606-3.705-10.667l-7.373-2.39s1.547 2.708-5.212 2.708c0 0-4.454-.175-5.106-2.708l-7.471 2.398s-6.4 1.559-7.483 8.281l3.754 6.921-.13 4.238 32.637-.016z" class="D"/><path d="M44.249 33.057c.293-2.313-.2-4.532-.179-6.812 0-1.531-.281-3.839-2.182-4.035-2.638-.269-3.453 4.287-3.607 6.258-.216 2.72.46 5.659.985 8.322.187.961.167 2.883 1.25 3.347.928.407 1.873-.537 2.345-1.221 1.14-1.69 1.144-3.921 1.388-5.859z" class="B"/><path d="M42.291 44.233c-1.042 4.072-2.879 5.208-2.879 5.208l-2.463.48c-1.421-.179-3.864-.757-3.864-.757-5.627-1.914-7.259-2.443-8.143-4.568-.037-.094-4.438-15.362-4.438-15.362-.708-7.85 7.52-9.478 8.762-9.702 1.221-.285 9.063-2.443 11.4 5.085a41 41 0 0 1 1.624 19.616z" class="C"/><path d="M44.88 17.011c.444 2.443.029 5.818-1.865 7.378-2.036 1.69-3.815 1.221-6.286 1.779-2.569.57-5.195.814-7.781 1.295-1.808.35-3.892.55-4.727 2.467a12.98 12.98 0 0 0-.574 8.314c.615 2.036.814 4.072 1.482 6.738a23.84 23.84 0 0 1-4.137-4.751c-1.16-2.036-1.16-2.036-2.475-5.607-.782-2.085-1.445-3.921-1.543-6.075-.13-2.773 1.221-3.986 2.699-6.514a10.05 10.05 0 0 1 5.891-4.812S38.484 17.948 38.24 15c0 0 3.102.79 2.512 2.85 0 0 3.257-.594 2.557-2.85.393.2.737.484 1.008.832s.464.75.563 1.179z" class="B"/><path d="M24.165 37.715s-1.388-3.033-3.579-1.221c0 0-.993.778.232 2.805 0 0 1.779 2.915 3.913 1.303l-.566-2.887z" class="C"/><path d="M23.949 30.647s0 5.423 1.006 8.302l-1.059.212s-.558-3.721-2.471-3.766l2.524-4.747z" class="B"/><path d="M21.4 75.372H10l.049-2.891a54.14 54.14 0 0 1 .765-7.939c.684-3.738 2.5-7.056 6.514-8.005 1.828-.436 3.457.672 4.446 2.178-.037-.008 1.775 2.223-.375 16.656z" class="D"/><g class="B"><path d="M66.253 17.044s9.943 2.85 9.002 17.89v32.397H63.949l2.304-50.287z"/><path d="M67.381 26.763v46.541H45.757V34.095s-1.421-15.04 8.913-16.888c0 0 12.711-2.199 12.711 9.556z"/></g><g class="C"><path d="M67.922 56.566H52.886v7.109h15.036v-7.109zM36.311 75.401H46.49l1.82-7.011s1.478-10.643-6.164-10.794c0 0-3.966 2.655-5.049 8.904-.012 0-.867 4.992-.786 8.9zm35.316 0l-1.372-5.293S67.812 58.3 75.467 58.146c0 0 5.537 4.356 5.138 17.251h-8.957M63.949 42.21H54.67v12.972h9.279V42.21z"/><path d="M76.244 59.318a10.18 10.18 0 0 0-5.354-3.909l-7.842-2.777h-7.483l-9.588 2.777a10.18 10.18 0 0 0-5.354 3.909h35.621z"/></g><path d="M74.327 69.859v5.541H44.198l.35-6.437c.375-12.402-1.075-12.406-1.075-12.406a9.46 9.46 0 0 1 2.488-1.148l7.569-2.056s1.629 5.912 7.866 5.912c0 0 4.825-1.669 3.518-5.973l5.977 2.117a12.73 12.73 0 0 1 4.576 2.74s-1.063.623-1.14 11.71z" class="D"/><g class="C"><path d="M53.66 43.244a5.85 5.85 0 0 0 1.376 1.918c1.552 1.431 3.355 2.563 5.317 3.339 2.443.949 6.107 1.071 8.017-.839 1.563-1.547 2.422-3.888 3.098-5.895 1.319-3.909 1.303-8.175.969-12.235-.077-.924-.175-1.852-.338-2.769-1.51-8.831-9.438-8.831-9.438-8.831-5.985-.248-11.449 2.443-12.369 8.477-.354 2.309.114 4.784.232 7.093.053 1.701.347 3.386.875 5.004.582 1.657 1.535 3.143 2.26 4.739z"/><path d="M52.886 36.494s-.814-3.147-3.331-1.844c0 0-1.144.55-.318 2.716 0 0 1.221 3.111 3.664 1.971l-.016-2.842z"/></g><path d="M73.04 27.777c.407-12.145-11.644-11.571-11.644-11.571-11.864.468-12.455 5.598-12.455 5.598-1.437 6.514.615 12.845.615 12.845 2.524-.529 2.952 2.695 2.952 2.695-.265-5.163.179-5.476.179-5.476 2.213-.012 4.424-.156 6.62-.432l.171-3.599.928 3.408c3.742-.134 7.465-.603 11.123-1.401 0 0 1.51.102 1.51 4.479v-6.547z" class="B"/></svg>