<svg xmlns="http://www.w3.org/2000/svg" width="90" height="90" fill="none" xmlns:v="https://vecta.io/nano"><rect x="9" y="15" width="63" height="42" rx="5" fill="#ffd0ce"/><rect x="14" y="25" width="14" height="11" rx="2" fill="#ff6a51"/><g stroke="#ffd0ce"><path d="M12.5 28.5H30M12.5 32H30"/><path d="M18 32v-4m6 4v-4"/></g><path d="M49 56.554V38.031C50.203 36.021 54.988 32 64.5 32s14.297 4.02 15.5 6.031v18.523C80 65.514 69.667 71.918 64.5 74 59.333 71.631 49 64.825 49 56.554z" fill="#ff6a51"/><path d="M54 54.954v-12.79C54.815 40.776 58.056 38 64.5 38s9.685 2.776 10.5 4.164v12.79C75 61.141 68 65.562 64.5 67 61 65.364 54 60.665 54 54.954z" fill="#ffd0ce"/></svg>