<svg xmlns="http://www.w3.org/2000/svg" xmlns:xlink="http://www.w3.org/1999/xlink" width="90" height="90" fill="none" xmlns:v="https://vecta.io/nano"><g clip-path="url(#A)"><g fill="#e84f35"><path d="M63.373 62.373H27.62V26.62h35.753v35.753zm-34.05-1.703H61.67V28.323H29.323V60.67z"/><path d="M20.563 18.352l-1.204 1.204 8.516 8.516 1.204-1.204-8.516-8.516zm49.882.007l-8.516 8.516 1.204 1.204 8.516-8.516-1.204-1.204z"/></g><path d="M18.256 20.661c1.881 0 3.405-1.524 3.405-3.405s-1.524-3.405-3.405-3.405-3.405 1.524-3.405 3.405 1.524 3.405 3.405 3.405z" fill="#ffd0ce"/><path d="M20.664 19.664a3.42 3.42 0 0 1-4.821 0l4.821-4.814a3.41 3.41 0 0 1 0 4.814z" fill="#fff"/><path d="M18.284 21.513c-.842 0-1.665-.25-2.365-.717s-1.245-1.133-1.568-1.91-.406-1.634-.242-2.459.57-1.584 1.165-2.179 1.354-1.001 2.179-1.165 1.681-.08 2.459.242 1.442.868 1.91 1.568.717 1.523.717 2.365c-.002 1.128-.451 2.21-1.249 3.008s-1.879 1.247-3.008 1.249zm0-6.81c-.505 0-.999.15-1.419.43s-.747.68-.941 1.146-.244.98-.145 1.476.342.95.699 1.308.812.6 1.308.699 1.009.048 1.476-.145.865-.521 1.146-.941.43-.914.43-1.419c0-.677-.269-1.327-.748-1.806s-1.128-.748-1.806-.748z" fill="#e84f35"/><g fill="#ffd0ce"><path d="M72.744 20.661c1.881 0 3.405-1.524 3.405-3.405s-1.524-3.405-3.405-3.405-3.405 1.524-3.405 3.405 1.525 3.405 3.405 3.405z"/><path d="M75.151 19.664a3.42 3.42 0 0 1-4.821 0l4.822-4.814a3.41 3.41 0 0 1 0 4.814z"/></g><g fill="#e84f35"><path d="M72.709 21.513a4.26 4.26 0 0 1-2.365-.717c-.7-.467-1.246-1.133-1.568-1.91a4.26 4.26 0 0 1-.242-2.459c.164-.825.57-1.584 1.165-2.179s1.354-1.001 2.179-1.165a4.26 4.26 0 0 1 2.459.242 4.25 4.25 0 0 1 1.91 1.568 4.26 4.26 0 0 1 .717 2.365c-.002 1.128-.451 2.21-1.249 3.008s-1.879 1.247-3.008 1.249zm0-6.81a2.56 2.56 0 0 0-2.36 1.576c-.194.466-.244.98-.145 1.476a2.56 2.56 0 0 0 .699 1.308 2.55 2.55 0 0 0 2.783.554 2.56 2.56 0 0 0 1.146-.941 2.55 2.55 0 0 0 .43-1.419 2.56 2.56 0 0 0-2.554-2.554zM27.87 60.917l-8.516 8.516 1.204 1.204 8.516-8.516-1.204-1.204zm35.259.01l-1.204 1.204 8.516 8.516 1.204-1.204-8.516-8.516z"/><use xlink:href="#B"/><path d="M35.281 28.323a.85.85 0 0 1-.851-.851v-6.81a.85.85 0 1 1 1.702 0v6.782a.85.85 0 0 1-.851.879zm3.406 0c-.115.002-.23-.02-.337-.063a.85.85 0 0 1-.529-.816v-6.81a.85.85 0 1 1 1.702 0v6.81a.85.85 0 0 1-.234.615c-.078.082-.171.147-.275.193a.85.85 0 0 1-.328.071zm3.405 0a.86.86 0 0 1-.332-.067.85.85 0 0 1-.462-.477c-.041-.107-.06-.22-.057-.334v-6.81a.85.85 0 1 1 1.702 0v6.81a.85.85 0 0 1-.851.879zm3.405 0a.85.85 0 0 1-.851-.851v-6.81a.85.85 0 1 1 1.702 0v6.782a.85.85 0 0 1-.851.879zm3.405 0a.85.85 0 0 1-.851-.851v-6.81a.85.85 0 1 1 1.702 0v6.782a.85.85 0 0 1-.239.62.86.86 0 0 1-.28.192.85.85 0 0 1-.332.067zm3.405 0a.85.85 0 0 1-.851-.851v-6.81a.85.85 0 1 1 1.702 0v6.782a.85.85 0 0 1-.851.879zm3.405 0a.85.85 0 0 1-.851-.851v-6.81a.85.85 0 1 1 1.702 0v6.782a.85.85 0 0 1-.851.879zm3.405 0a.86.86 0 0 1-.332-.067.85.85 0 0 1-.519-.811v-6.81a.85.85 0 1 1 1.702 0v6.81c.004.114-.016.228-.057.334a.85.85 0 0 1-.183.286.87.87 0 0 1-.28.192.84.84 0 0 1-.332.067zm-27.241 40.86c-.112.001-.223-.021-.327-.063s-.198-.105-.277-.184-.142-.173-.184-.277-.064-.215-.063-.327v-6.81a.85.85 0 1 1 1.702 0v6.81a.85.85 0 0 1-.526.787.85.85 0 0 1-.326.065zm3.405 0c-.112.001-.223-.021-.327-.063s-.198-.105-.277-.184-.142-.173-.184-.277a.84.84 0 0 1-.063-.327v-6.81a.85.85 0 1 1 1.702 0v6.81a.85.85 0 0 1-.065.326c-.043.103-.105.197-.184.276a.84.84 0 0 1-.276.184.85.85 0 0 1-.326.065zm3.406 0c-.113.003-.226-.017-.331-.059a.86.86 0 0 1-.282-.183.83.83 0 0 1-.188-.279.85.85 0 0 1-.064-.33v-6.81a.85.85 0 1 1 1.702 0v6.81a.85.85 0 0 1-.837.851zm3.405 0a.85.85 0 0 1-.326-.065.87.87 0 0 1-.276-.184.83.83 0 0 1-.184-.276.85.85 0 0 1-.065-.326v-6.81a.85.85 0 1 1 1.702 0v6.81a.85.85 0 0 1-.851.851zm3.405 0a.85.85 0 0 1-.787-.525c-.043-.103-.065-.214-.065-.326v-6.81a.85.85 0 1 1 1.702 0v6.81a.85.85 0 0 1-.851.851zm3.405 0a.85.85 0 0 1-.326-.065.87.87 0 0 1-.276-.184.83.83 0 0 1-.184-.276.85.85 0 0 1-.065-.326v-6.81a.85.85 0 1 1 1.702 0v6.81a.85.85 0 0 1-.065.326c-.043.103-.105.197-.184.276a.84.84 0 0 1-.276.184.85.85 0 0 1-.326.065zm3.405 0a.85.85 0 0 1-.326-.065.87.87 0 0 1-.276-.184.83.83 0 0 1-.184-.276.85.85 0 0 1-.065-.326v-6.81a.85.85 0 1 1 1.702 0v6.81a.84.84 0 0 1-.063.327c-.042.104-.105.198-.184.277s-.174.142-.277.184a.85.85 0 0 1-.327.063zm3.405 0a.85.85 0 0 1-.787-.525c-.043-.103-.065-.214-.065-.326v-6.81a.85.85 0 1 1 1.702 0v6.81a.84.84 0 0 1-.063.327c-.042.104-.105.198-.184.277s-.173.142-.277.184-.215.064-.327.063zm3.405 0a.85.85 0 0 1-.851-.851v-6.81a.85.85 0 1 1 1.702 0v6.81c.001.112-.02.223-.063.327a.85.85 0 0 1-.184.277c-.079.079-.173.142-.277.184s-.215.064-.327.063z"/><use xlink:href="#C"/><path d="M69.332 35.119h-6.81a.85.85 0 1 1 0-1.702h6.81a.85.85 0 1 1 0 1.702zm0 3.419h-6.81a.85.85 0 1 1 0-1.702h6.81a.85.85 0 1 1 0 1.702zm0 3.405h-6.81a.85.85 0 1 1 0-1.702h6.81a.85.85 0 1 1 0 1.702zm0 3.405h-6.81a.85.85 0 1 1 0-1.702h6.81a.85.85 0 1 1 0 1.702zm0 3.405h-6.81a.85.85 0 1 1 0-1.702h6.81a.85.85 0 1 1 0 1.702zm0 3.405h-6.81a.85.85 0 1 1 0-1.702h6.81a.85.85 0 1 1 0 1.702zm0 3.405h-6.81a.85.85 0 1 1 0-1.702h6.81a.85.85 0 1 1 0 1.702zm0 3.405h-6.81a.85.85 0 1 1 0-1.702h6.81a.85.85 0 1 1 0 1.702zm-40.861-27.24h-6.81a.85.85 0 1 1 0-1.702h6.81a.85.85 0 1 1 0 1.702zm0 3.391h-6.81a.85.85 0 1 1 0-1.702h6.81a.85.85 0 1 1 0 1.702zm0 3.419h-6.81a.85.85 0 1 1 0-1.702h6.81a.85.85 0 1 1 0 1.702zm0 3.405h-6.81a.85.85 0 1 1 0-1.702h6.81a.85.85 0 1 1 0 1.702zm0 3.405h-6.81a.85.85 0 1 1 0-1.702h6.81a.85.85 0 1 1 0 1.702zm0 3.405h-6.81a.85.85 0 1 1 0-1.702h6.81a.85.85 0 1 1 0 1.702zm0 3.405h-6.81a.85.85 0 1 1 0-1.702h6.81a.85.85 0 1 1 0 1.702zm0 3.405h-6.81a.85.85 0 1 1 0-1.702h6.81a.85.85 0 1 1 0 1.702zm0 3.405h-6.81a.85.85 0 1 1 0-1.702h6.81a.85.85 0 1 1 0 1.702z"/></g><path d="M75.151 69.309c-.477-.478-1.085-.803-1.747-.935a3.41 3.41 0 0 0-3.504 1.45 3.41 3.41 0 0 0 0 3.792 3.41 3.41 0 0 0 1.532 1.257c.624.258 1.31.325 1.972.193s1.27-.458 1.747-.935a3.42 3.42 0 0 0 0-4.821z" fill="#ffd0ce"/><path d="M75.151 74.151a3.42 3.42 0 0 1-4.821 0l4.822-4.842a3.42 3.42 0 0 1 1.005 2.421 3.42 3.42 0 0 1-1.005 2.421z" fill="#fff"/><path d="M72.709 75.993c-.842 0-1.665-.25-2.365-.717s-1.246-1.132-1.568-1.91-.406-1.634-.242-2.459.57-1.584 1.165-2.179 1.354-1.001 2.179-1.165 1.681-.08 2.459.242 1.443.868 1.91 1.568.717 1.523.717 2.365c-.002 1.128-.451 2.21-1.249 3.008s-1.879 1.247-3.008 1.249zm0-6.81c-.505 0-.999.15-1.419.43s-.747.679-.941 1.146-.244.98-.145 1.475.342.95.699 1.308.812.6 1.308.699 1.009.048 1.475-.145.865-.521 1.146-.941.43-.914.43-1.419a2.56 2.56 0 0 0-2.554-2.554z" fill="#e84f35"/><g fill="#ffd0ce"><path d="M20.664 69.309a3.41 3.41 0 0 0-3.719-.742 3.41 3.41 0 0 0-2.108 3.153 3.41 3.41 0 0 0 2.108 3.153c.624.258 1.31.325 1.972.193a3.41 3.41 0 0 0 1.747-.935 3.42 3.42 0 0 0 0-4.821z"/><path d="M20.664 74.151a3.42 3.42 0 0 1-4.821 0l4.821-4.821a3.42 3.42 0 0 1 0 4.821z"/></g><path d="M18.284 75.993c-.842 0-1.665-.25-2.365-.717s-1.245-1.132-1.568-1.91-.406-1.634-.242-2.459.57-1.584 1.165-2.179 1.354-1.001 2.179-1.165 1.681-.08 2.459.242 1.442.868 1.91 1.568.717 1.523.717 2.365c0 1.129-.448 2.211-1.247 3.01s-1.881 1.247-3.01 1.247zm0-6.81c-.505 0-.999.15-1.419.43s-.747.679-.941 1.146-.244.98-.145 1.475.342.95.699 1.308.812.6 1.308.699 1.009.048 1.476-.145.865-.521 1.146-.941.43-.914.43-1.419a2.56 2.56 0 0 0-2.554-2.554z" fill="#e84f35"/><g fill="#ffd0ce"><path d="M59.117 58.145H35.281l-3.405-3.405V30.876h23.835l3.405 3.405v23.863z"/><path d="M50.89 36.124H36.558a.85.85 0 1 1 0-1.702H50.89a.85.85 0 1 1 0 1.702zm-9.064 3.516h-5.268a.86.86 0 0 1-.781-.855.86.86 0 0 1 .781-.855h5.268a.86.86 0 0 1 .781.855.86.86 0 0 1-.781.855z"/></g></g><defs><clipPath id="A"><path fill="#fff" transform="translate(14 13)" d="M0 0h63v63H0z"/></clipPath><path id="B" d="M31.876 28.323a.85.85 0 0 1-.851-.851v-6.81a.85.85 0 0 1 .851-.851.85.85 0 0 1 .851.851v6.782a.85.85 0 0 1-.239.62.85.85 0 0 1-.612.259z"/><path id="C" d="M69.332 31.728h-6.81a.85.85 0 0 1-.851-.851.85.85 0 0 1 .851-.851h6.81a.85.85 0 0 1 .851.851.85.85 0 0 1-.851.851z"/></defs></svg>