<svg xmlns="http://www.w3.org/2000/svg" width="90" height="90" fill="none" xmlns:v="https://vecta.io/nano"><g clip-path="url(#A)"><path d="M47.33 33.641c-.9 9.932-7.964 18.07-17.847 18.07S18.333 32.748 15.147 23.307c-3.265-9.659 4.428-7.743 14.335-7.743s19.329 2.68 17.847 18.078z" fill="#fca697"/><g fill="#ffd0ce"><path d="M22.609 53.224L27.316 65l.812-15.14-5.519 3.364zm-7.541-8.548v-5.409l3.512-4.99-2.955-3.308 6.148-5.151c-.796-.757-4.253-1.384-5.232-1.859l-1.362-.652-3.186 6.439a5.02 5.02 0 0 0-.096 4.226L7.358 42.02a1.62 1.62 0 0 0-.31.715 1.63 1.63 0 0 0 .059.778 1.61 1.61 0 0 0 .414.658 1.59 1.59 0 0 0 .672.384c.715.153 1.45.18 2.174.081l-.191 2.825a9.93 9.93 0 0 0 1.72.531 1.02 1.02 0 0 0-.489.099 1.04 1.04 0 0 0-.387.319c-.932 1.231.518 1.352.39 2.036a13.1 13.1 0 0 0 .167 2.254 2.86 2.86 0 0 0 .345 1.055 2.84 2.84 0 0 0 .72.841 2.8 2.8 0 0 0 .984.497 2.78 2.78 0 0 0 1.097.078l.605-.081 1.426-8.492-1.688-1.924z"/><path d="M44.144 65l-6.475-15.478-.35-.097c-.889-.239-1.703-.705-2.362-1.354s-1.143-1.457-1.405-2.349l-.311-1.046-5.113 5.143-.796 15.148L44.144 65z"/><path d="M31.123 37.408c-3.186-.274-3.337 3.606-4.954.845l-2.795-10.375c-.438-.765-.988-2.696-4.946-3.324l-2.803 6.439 2.955 3.308-3.512 4.99v5.409l1.688 1.899-1.41 8.532 3.831-.539 3.432-1.368.86-.523 4.659-2.882 5.121-5.175-2.126-7.236z"/><path d="M27.81 37.263s.669-3.912 3.401-3.912c3.401 0 3.783 2.519 3.783 4.524 0 2.769-2.23 7.324-5.129 7.598-1.648.153-2.724-2.729-2.676-2.801s.621-5.409.621-5.409z"/></g><g fill="#e84f35"><path d="M25.548 37.449c-.255-.588-1.043-2.415 2.095-10.359a13.65 13.65 0 0 0 .956-4.99V15h2.389v7.099c-.003 2.015-.384 4.012-1.123 5.884-2.19 5.538-2.389 7.944-2.126 8.492l-2.19.974z"/><path d="M37.072 37.408a6.06 6.06 0 0 1-.999 3.343c-.653.99-1.581 1.762-2.668 2.218a5.89 5.89 0 0 1-3.438.346 5.93 5.93 0 0 1-3.048-1.644c-.833-.84-1.4-1.912-1.63-3.078s-.113-2.376.337-3.475a6 6 0 0 1 2.191-2.7c.978-.661 2.129-1.014 3.306-1.014 1.576 0 3.088.632 4.204 1.758s1.743 2.653 1.745 4.246z"/><path d="M34.221 37.408c0 .619-.182 1.225-.522 1.74s-.824.916-1.39 1.153a3.07 3.07 0 0 1-1.79.178 3.09 3.09 0 0 1-1.586-.857 3.14 3.14 0 0 1-.848-1.603 3.16 3.16 0 0 1 .176-1.809c.234-.572.631-1.061 1.141-1.405s1.108-.528 1.721-.528a3.09 3.09 0 0 1 2.188.919c.58.587.908 1.382.91 2.212z"/><path d="M15.625 49.466a.79.79 0 0 1-.563-.236.81.81 0 0 1 0-1.138.79.79 0 0 1 .563-.236c.072 0 7.168-.427 10.799-3.002 2.955-2.101 3.982-6.713 3.982-6.761a.82.82 0 0 1 .349-.521c.18-.12.4-.163.611-.119s.397.171.515.352a.83.83 0 0 1 .118.617c-.048.217-1.139 5.288-4.603 7.751-3.982 2.841-11.317 3.276-11.627 3.292h-.143z"/><path d="M17.17 50.681h-2.103a1.99 1.99 0 0 1-1.403-.597 2.03 2.03 0 0 1 .006-2.851 1.99 1.99 0 0 1 1.413-.592h2.103a1.99 1.99 0 0 1 1.413.592 2.03 2.03 0 0 1 .585 1.429 2.04 2.04 0 0 1-.154.777c-.101.246-.25.47-.437.657a2 2 0 0 1-.654.437 1.98 1.98 0 0 1-.77.149z"/></g><path d="M77.457 33.641c0 4.792-1.884 9.389-5.237 12.777s-7.901 5.293-12.642 5.293c-9.875 0-10.863-13.683-13.794-23.221-2.74-8.91 3.918-12.927 13.794-12.927 4.743.002 9.29 1.908 12.643 5.298s5.236 7.987 5.236 12.78z" fill="#fca697"/><g fill="#ffd0ce"><path d="M47.64 39.461l4.165-4.21-2.541-2.559v-6.874a10.08 10.08 0 0 0-2.628-1.859l-1.37-.652-2.039 5.127c-1.003 2.986-1.195 4.129-.796 5.932.725 3.219-4.723 7.389-4.977 7.695a1.62 1.62 0 0 0-.31.715 1.63 1.63 0 0 0 .059.778 1.61 1.61 0 0 0 .414.658 1.59 1.59 0 0 0 .672.384l2.668.29a3.81 3.81 0 0 1-.382 1.61c-.796 1.215.916 1.473 1.426 1.521-.17-.008-.339.025-.493.098s-.288.183-.391.32c-.932 1.232.518 1.352.398 2.036s-.995 3.421.573 4.387c.924.571 4.436.153 7.168-.282l3.441-1.368-5.073-8.178.016-5.57zm19.791 9.964c-.891-.238-1.706-.703-2.367-1.352a5.44 5.44 0 0 1-1.408-2.351l-.303-1.046-5.121 5.143-.796 15.148h16.836L67.789 49.49l-.358-.064z"/><path d="M61.227 37.408c-1.557-.133-3.06-.642-4.383-1.482s-2.428-1.988-3.223-3.348l-2.748-4.693a9.82 9.82 0 0 0-1.593-2.06V32.7l2.541 2.56-4.165 4.21v5.586l5.073 8.178 5.503-3.413 5.121-5.175-2.126-7.236z"/><path d="M52.713 53.224L57.412 65l.812-15.14-5.511 3.364zm5.201-15.961s.669-3.912 3.401-3.912c3.393 0 3.783 2.519 3.783 4.524 0 2.769-2.23 7.324-5.137 7.598-1.648.153-2.716-2.729-2.676-2.801s.629-5.409.629-5.409z"/></g><g fill="#e84f35"><path d="M55.652 37.449c-.263-.588-1.051-2.415 2.087-10.359.631-1.587.955-3.28.956-4.99V15h2.389v7.099c.001 2.016-.381 4.013-1.123 5.884-2.182 5.538-2.389 7.944-2.126 8.492l-2.182.974z"/><path d="M67.168 37.408a6.06 6.06 0 0 1-.999 3.343c-.653.99-1.582 1.762-2.67 2.218a5.89 5.89 0 0 1-3.439.344 5.93 5.93 0 0 1-3.048-1.646 6.03 6.03 0 0 1-1.629-3.081 6.07 6.07 0 0 1 .34-3.476 6 6 0 0 1 2.194-2.698c.98-.66 2.131-1.012 3.308-1.01a5.91 5.91 0 0 1 4.201 1.759c1.114 1.126 1.74 2.653 1.74 4.246z"/><path d="M64.325 37.408c0 .619-.182 1.225-.522 1.74s-.824.916-1.39 1.153a3.07 3.07 0 0 1-1.79.178c-.601-.121-1.153-.419-1.586-.857a3.14 3.14 0 0 1-.848-1.603 3.16 3.16 0 0 1 .176-1.809c.234-.572.631-1.061 1.141-1.405s1.108-.528 1.721-.528a3.09 3.09 0 0 1 2.188.919c.581.587.908 1.382.91 2.212z"/><path d="M45.737 49.466a.79.79 0 0 1-.57-.219.81.81 0 0 1-.034-1.138c.145-.156.345-.246.556-.253.072 0 7.168-.427 10.799-3.002 2.947-2.093 3.982-6.721 3.982-6.761.021-.106.063-.206.123-.295s.136-.166.226-.225a.81.81 0 0 1 .294-.121c.105-.02.213-.02.317.002a.81.81 0 0 1 .292.124c.088.06.164.138.223.228s.1.191.12.297a.83.83 0 0 1-.002.321c0 .217-1.139 5.288-4.603 7.751-3.982 2.841-11.317 3.276-11.627 3.292h-.096z"/><path d="M47.266 50.681h-2.095a1.98 1.98 0 0 1-.765-.154 2 2 0 0 1-.648-.438 2.02 2.02 0 0 1-.433-.655 2.04 2.04 0 0 1 0-1.546 2.02 2.02 0 0 1 .433-.655c.186-.188.406-.336.648-.438a1.98 1.98 0 0 1 .765-.154h2.095a1.98 1.98 0 0 1 .765.154c.242.102.463.25.648.438a2.02 2.02 0 0 1 .433.655 2.04 2.04 0 0 1 0 1.546 2.02 2.02 0 0 1-.433.655 2 2 0 0 1-.648.438 1.98 1.98 0 0 1-.765.154z"/></g><path d="M73.204 23.025s7.032 4.564 6.682 22.014A47.89 47.89 0 0 0 83 62.038H67.988h-6.674a25.95 25.95 0 0 0 2.341-16.307l9.549-22.706z" fill="#fca697"/></g><defs><clipPath id="A"><path fill="#fff" transform="translate(7 15)" d="M0 0h76v50H0z"/></clipPath></defs></svg>